<svg width="20" height="21" viewBox="0 0 20 21" fill="none" xmlns="http://www.w3.org/2000/svg">
<g clip-path="url(#clip0_3398_7240)">
<path d="M1.24976 1.86059C-0.321907 3.49309 -0.000240855 5.22725 -0.000240855 10.4956C-0.000240855 14.8706 -0.763574 19.2564 3.23143 20.2889C4.47893 20.6098 15.5323 20.6098 16.7781 20.2873C18.4414 19.8581 19.7948 18.5089 19.9798 16.1564C20.0056 15.8281 20.0056 5.16892 19.9789 4.83392C19.7823 2.32809 18.2398 0.883921 16.2073 0.591421C15.7414 0.523921 15.6481 0.50392 13.2581 0.499754C4.78059 0.50392 2.92226 0.12642 1.24976 1.86059Z" fill="#9E9E9E"/>
<path d="M9.99883 3.11553C6.973 3.11553 4.09966 2.84636 3.00216 5.66303C2.54883 6.82636 2.61466 8.33719 2.61466 10.5005C2.61466 12.3989 2.55383 14.183 3.00216 15.3372C4.09716 18.1555 6.99383 17.8855 9.99716 17.8855C12.8947 17.8855 15.8822 18.1872 16.993 15.3372C17.4472 14.1622 17.3805 12.6739 17.3805 10.5005C17.3805 7.61553 17.5397 5.75303 16.1405 4.35469C14.7238 2.93803 12.808 3.11553 9.9955 3.11553H9.99883ZM9.33716 4.44636C15.6488 4.43636 16.4522 3.73469 16.0088 13.4822C15.8513 16.9297 13.2263 16.5514 9.99966 16.5514C4.11633 16.5514 3.94716 16.383 3.94716 10.4972C3.94716 4.54303 4.41383 4.44969 9.33716 4.44469V4.44636ZM13.9405 5.67219C13.4513 5.67219 13.0547 6.06886 13.0547 6.55803C13.0547 7.04719 13.4513 7.44386 13.9405 7.44386C14.4297 7.44386 14.8263 7.04719 14.8263 6.55803C14.8263 6.06886 14.4297 5.67219 13.9405 5.67219ZM9.99883 6.70803C7.90466 6.70803 6.20716 8.40636 6.20716 10.5005C6.20716 12.5947 7.90466 14.2922 9.99883 14.2922C12.093 14.2922 13.7897 12.5947 13.7897 10.5005C13.7897 8.40636 12.093 6.70803 9.99883 6.70803ZM9.99883 8.03886C13.253 8.03886 13.2572 12.9622 9.99883 12.9622C6.7455 12.9622 6.7405 8.03886 9.99883 8.03886Z" fill="white"/>
</g>
<defs>
<clipPath id="clip0_3398_7240">
<rect width="20" height="20" fill="white" transform="translate(0 0.5)"/>
</clipPath>
</defs>
</svg>
