<svg width="20" height="21" viewBox="0 0 20 21" fill="none" xmlns="http://www.w3.org/2000/svg">
<path d="M15.7346 0.5H4.26542C1.90969 0.5 0 2.40969 0 4.76542V16.2346C0 18.5903 1.90969 20.5 4.26542 20.5H15.7346C18.0903 20.5 20 18.5903 20 16.2346V4.76542C20 2.40969 18.0903 0.5 15.7346 0.5Z" fill="#9E9E9E"/>
<path fill-rule="evenodd" clip-rule="evenodd" d="M9.71523 4.6474C6.62034 4.79458 4.17824 7.37202 4.18753 10.4702C4.19044 11.4137 4.4182 12.3046 4.82023 13.0916L4.20323 16.0866C4.16972 16.2487 4.31593 16.3907 4.47686 16.3525L7.41162 15.6573C8.16554 16.0328 9.01261 16.2497 9.90893 16.2635C13.072 16.3117 15.7095 13.8003 15.8083 10.6382C15.9138 7.24867 13.1163 4.48528 9.71523 4.6474ZM13.2171 13.6701C12.3576 14.5296 11.2148 15.0029 9.99936 15.0029C9.28763 15.0029 8.60614 14.8431 7.97384 14.5282L7.56541 14.3247L5.76589 14.7509L6.14452 12.9123L5.94327 12.518C5.61502 11.8752 5.4487 11.1802 5.4487 10.4522C5.4487 9.23658 5.92201 8.09398 6.78148 7.23431C7.63318 6.38262 8.79458 5.90157 9.99938 5.90157C11.2148 5.90157 12.3576 6.37504 13.217 7.23431C14.0765 8.09379 14.5498 9.2366 14.5498 10.452C14.55 11.6568 14.069 12.8182 13.2171 13.6701Z" fill="white"/>
<path fill-rule="evenodd" clip-rule="evenodd" d="M12.819 11.713L11.6932 11.3898C11.5453 11.3474 11.3859 11.3894 11.278 11.4992L11.0028 11.7796C10.8866 11.8979 10.7106 11.9359 10.557 11.8738C10.0244 11.6584 8.90412 10.6622 8.61826 10.1641C8.53557 10.0204 8.54929 9.84088 8.65058 9.70954L8.89094 9.39874C8.98504 9.27693 9.00481 9.11327 8.94264 8.97246L8.46913 7.90114C8.35565 7.64473 8.02779 7.56998 7.81357 7.75109C7.4995 8.01696 7.12666 8.42052 7.08136 8.86791C7.0014 9.65669 7.3397 10.651 8.61865 11.8449C10.0965 13.2241 11.2798 13.4064 12.0504 13.2197C12.4874 13.1139 12.8366 12.6897 13.057 12.3422C13.2073 12.105 13.0886 11.7905 12.819 11.713Z" fill="white"/>
</svg>
