<svg width="373" height="88" viewBox="0 0 373 88" fill="none" xmlns="http://www.w3.org/2000/svg">
<g clip-path="url(#clip0_480_2902)">
<path d="M81.2234 54.7944C78.3454 57.2242 71.8099 61.0302 68.2124 58.3853C66.034 56.7726 65.3544 53.3967 65.8941 50.6874C65.8941 50.6229 65.8741 50.5584 65.8141 50.5584C65.7941 50.5584 65.7542 50.5584 65.7342 50.5799C60.158 55.0524 53.7225 58.2778 46.7074 58.8154C46.3077 58.8369 45.6282 58.7939 44.7088 58.6004C37.8136 57.4177 41.0913 45.7848 42.9301 41.7207C44.8887 37.3987 47.0672 33.2272 49.4655 29.2277C49.4855 29.2062 49.4655 29.1416 49.4455 29.1416H49.3856C38.5931 30.2598 28.3402 30.8404 16.9881 29.8727C11.3521 29.3782 5.73599 28.9266 0.0999237 28.4966C0.0399655 28.4966 0.0199794 28.4321 0.0399655 28.4106C0.0399655 28.3891 0.0599515 28.346 0.0999237 28.346L7.33488 24.9056C7.33488 24.9056 7.53474 24.8411 7.61468 24.8841C16.0888 26.2818 24.9226 27.615 33.4966 27.615C39.5524 27.615 45.6282 27.3784 51.644 26.8624C51.7239 26.8624 51.8039 26.7978 51.8638 26.7333C60.8975 14.1112 73.8485 3.59641 88.8181 0.887072C91.816 0.349504 99.7904 -0.446097 99.3907 5.23062C99.2708 7.12286 96.7326 10.0042 95.2336 11.4879C85.5004 21.0351 71.8699 26.7333 59.0188 28.5611C58.8789 28.5826 58.739 28.6901 58.6191 28.7976C55.4014 33.6572 51.9238 41.5702 52.5034 47.6555C52.9231 51.999 57.4599 51.311 60.1381 50.1713C62.5364 49.1607 64.7548 47.806 66.7535 46.0643C67.1532 45.7202 67.5129 45.2687 67.8327 44.6881C70.0711 40.6026 72.8692 37.0546 76.2069 34.0443C80.4239 30.2168 90.1371 22.7553 95.1137 29.4857C95.1736 29.5502 95.2536 29.5717 95.3135 29.5072H95.3335L96.7126 27.873C96.7725 27.8085 96.8525 27.744 96.9724 27.744L105.007 27.658C105.007 27.658 105.127 27.7225 105.127 27.787C105.127 27.8085 105.127 27.8515 105.107 27.8515C101.07 34.4743 97.0523 41.0757 93.0351 47.677C92.4755 48.6231 91.2564 50.4078 92.1557 51.354C93.7946 53.1387 98.2915 49.4617 99.5706 48.3436C100.17 47.8275 100.75 47.1179 101.329 46.2363C105.267 40.2155 109.184 34.1948 113.121 28.174C113.181 28.088 113.261 28.045 113.341 28.0235C113.541 28.002 113.841 27.959 114.22 27.959H122.355C122.615 27.959 122.674 28.088 122.495 28.303L121.495 29.8297C121.495 29.8297 121.475 29.8942 121.495 29.9157C121.515 29.9372 121.515 29.9372 121.555 29.9157C124.493 28.6041 135.386 24.196 135.525 31.0124C135.525 31.0769 135.585 31.1414 135.645 31.1414H135.705C138.863 29.4642 152.534 23.0779 152.014 31.894C151.934 33.3132 151.314 34.6248 150.455 35.9365C147.737 40.065 144.999 44.2151 142.281 48.3866C141.521 49.5477 140.022 52.8591 142.84 52.4076C144.899 52.0635 148.716 49.8918 149.875 47.9995C153.913 41.3982 157.97 34.8184 162.027 28.26C162.087 28.174 162.167 28.131 162.247 28.131L171.54 28.045C171.54 28.045 171.66 28.1095 171.66 28.174C171.66 28.174 171.654 28.1955 171.64 28.2385L170.561 29.9157C170.561 29.9157 170.541 30.0448 170.581 30.0663C170.601 30.0878 170.641 30.0878 170.661 30.0663C173.319 28.7976 182.273 25.3572 184.212 29.0986C185.171 30.9479 184.611 33.7432 183.512 35.4204C180.654 39.7425 177.796 44.086 174.938 48.4081C174.099 49.7198 172.64 53.0312 175.777 52.3861C178.236 51.87 180.814 50.2573 181.753 47.634C183.112 43.871 185.411 40.4951 187.969 37.5922C192.186 32.8186 204.338 21.6802 210.313 29.6147C210.333 29.6362 210.393 29.6362 210.433 29.6147L211.872 27.9375C211.872 27.9375 212.012 27.8085 212.132 27.8085L220.186 27.7225C220.186 27.7225 220.266 27.744 220.266 27.8085V27.873C216.109 34.6893 211.952 41.5272 207.835 48.3436C206.876 49.9348 206.336 52.6226 209.254 51.7195C211.113 51.1389 212.912 50.3218 214.57 49.2252C214.65 49.1607 214.71 49.0962 214.73 49.0102C217.988 39.1834 227.701 28.8621 237.614 27.3139C239.873 26.9484 241.911 27.701 243.69 29.5287C243.75 29.5932 243.85 29.5932 243.91 29.5287L245.289 27.916C245.289 27.916 245.449 27.787 245.549 27.787L253.443 27.701C253.663 27.701 253.723 27.787 253.603 28.002C248.507 37.2267 242.991 46.1718 237.055 54.7944C237.035 54.8159 237.055 54.8589 237.055 54.8804H237.115C240.572 52.7516 244.01 50.6229 247.467 48.4941C247.727 48.3436 247.887 48.1931 248.007 47.9995C252.364 41.3982 256.681 34.7754 260.978 28.131C261.038 28.045 261.118 28.002 261.198 28.002H270.272C270.431 28.002 270.471 28.0665 270.391 28.217L269.312 29.8297C269.312 29.8297 269.292 29.9157 269.332 29.9587C269.352 29.9803 269.392 29.9803 269.412 29.9587C272.43 28.5611 282.703 24.4326 283.502 30.4748C283.842 33.0981 282.663 34.7969 281.044 37.2267C278.606 40.8821 276.207 44.5591 273.809 48.2361C272.91 49.6122 271.491 53.1387 274.768 52.2141C276.068 51.8485 278.586 50.8809 279.205 49.4832C283.243 40.3016 293.515 29.1631 303.388 28.1955C306.306 27.8945 308.085 29.3137 308.645 32.4531C309.064 34.7108 309.104 36.7321 308.785 38.6028C308.785 38.6674 308.805 38.7534 308.865 38.7534H308.885C310.863 38.8394 313.441 38.1083 314.541 36.173C316.02 33.5282 317.479 30.9049 318.958 28.2385C319.038 28.088 319.018 28.002 318.818 28.002C312.002 28.3675 304.967 25.5077 302.069 18.4548C300.451 14.5198 301.67 10.8428 304.168 7.74644C308.665 2.11273 315.64 0.47852 322.315 1.53215C322.435 1.55366 322.515 1.68267 322.515 1.81169C322.515 1.8762 322.455 1.94071 322.395 1.98371C322.135 2.15573 321.836 2.26325 321.436 2.32775C319.237 2.6718 317.019 3.08035 314.84 3.63942C307.046 5.55316 300.93 15.7239 309.844 21.8952C313.162 24.1745 317.399 25.6367 321.216 24.6906C321.296 24.6691 321.376 24.6261 321.436 24.5401C327.692 16.111 335.466 7.61742 345.079 3.40289C346.978 2.54278 349.636 1.85469 351.575 2.39226C353.913 3.03734 355.412 5.53166 354.773 8.13349C353.014 15.1864 344.34 20.3255 339.004 23.2499C335.806 24.9916 332.468 26.2603 328.931 27.0774C328.851 27.0989 328.771 27.1419 328.711 27.2279C324.554 33.4422 320.936 39.979 317.858 46.8599C317.319 48.0425 315.66 51.9775 317.499 52.5151C318.738 52.8807 320.417 51.87 321.396 51.1819C321.476 51.1174 321.536 51.0529 321.556 50.9454C322.515 48.3866 323.714 46.1073 325.093 44.0645C330.01 36.8611 336.605 30.4318 344.68 28.4321C353.114 26.3248 352.534 36.1085 350.955 41.3552C350.935 41.4412 350.975 41.5272 351.075 41.5702H351.095C358.73 41.8498 365.945 37.8287 372.081 33.3562C372.141 33.3347 372.201 33.3347 372.22 33.3777L372.92 36.044C372.94 36.13 372.92 36.259 372.84 36.3236C371.281 37.5707 369.682 38.6889 368.003 39.678C366.385 40.6241 365.405 41.2692 365.006 41.5272C362.487 43.4195 360.389 46.2148 358.59 48.9242C354.573 54.9879 350.815 61.2667 347.358 67.825C347.298 67.9541 347.198 67.9971 347.038 67.9971C329.51 68.2121 311.263 68.3841 294.395 69.9538C287.1 70.6204 280.684 71.631 275.108 72.9427C267.114 74.8349 258.899 77.7163 251.325 80.7912C251.245 80.8127 251.125 80.8127 251.045 80.7912L243.91 77.2217C243.91 77.2217 243.85 77.1357 243.85 77.0712C243.85 77.0497 243.87 77.0497 243.91 77.0067C247.607 75.7596 251.365 74.5769 255.162 73.4158C265.855 70.1688 276.727 68.0831 287.799 67.18C306.946 65.5888 326.133 65.5888 345.339 65.6963C345.419 65.6963 345.499 65.6748 345.559 65.5673C350.256 57.9983 354.953 50.5369 360.209 43.441C360.269 43.3764 360.229 43.2689 360.189 43.2259C360.169 43.2044 360.109 43.2044 360.049 43.2044C356.571 44.6236 352.974 45.1827 349.257 44.8386C349.137 44.8386 349.037 44.8601 348.977 44.9892C344.56 51.4615 338.864 56.1491 331.869 59.0089C327.771 60.6861 321.596 61.8903 320.696 55.332C320.696 55.2675 320.636 55.2459 320.616 55.2459C320.596 55.2459 320.596 55.2459 320.596 55.2675C317.998 57.3962 310.224 62.6644 306.766 60.3851C302.589 57.5897 309.544 45.2042 311.263 42.1723C311.283 42.1078 311.263 42.0863 311.243 42.0433C311.223 42.0218 311.183 42.0218 311.163 42.0433C309.864 42.7099 308.505 43.1399 307.086 43.3119C307.006 43.3119 306.926 43.3764 306.866 43.4625C302.049 50.8164 296.413 56.2781 288.439 59.2885C287.02 59.826 285.561 60.1701 284.062 60.3636C280.504 60.7291 277.526 58.4499 277.926 54.2783C277.946 53.9343 277.906 53.9343 277.766 54.2138L277.646 54.4288C277.646 54.4288 277.566 54.5579 277.487 54.6009C273.749 57.0307 269.932 59.0519 265.875 59.5895C259.319 60.4711 259.799 55.1169 262.397 51.0099C263.956 48.5371 266.894 44.0215 271.171 37.4632C271.591 36.8181 272.07 35.6785 271.93 34.8829C271.511 32.3025 267.993 33.6357 266.794 34.4958C266.254 34.8614 265.715 35.4634 265.175 36.2805C260.458 43.527 255.682 50.7949 250.905 58.1273C250.785 58.2778 250.625 58.3638 250.445 58.3638H241.492C241.352 58.3638 241.352 58.2993 241.412 58.1918L243.47 55.0524C243.47 55.0524 243.49 54.9234 243.45 54.9019C243.43 54.8804 243.37 54.8804 243.33 54.9019C240.133 56.5146 236.915 58.1488 233.717 59.826C233.297 60.0411 232.918 60.3421 232.618 60.7291C228.78 65.5888 224.823 70.3624 220.746 75.0285C216.509 79.8881 211.812 83.8876 205.976 86.3389C203.878 87.2205 198.202 89.0482 199.181 84.0596C201.659 71.459 213.711 64.4276 224.044 60.7937C224.124 60.7722 224.204 60.7076 224.264 60.6216L225.143 59.0734C225.143 59.0734 225.163 58.9444 225.123 58.9229C225.103 58.9014 225.063 58.9014 225.003 58.9229C223.864 59.4605 222.685 59.783 221.466 59.869C216.769 60.2346 214.051 57.8693 214.091 52.6656C214.091 52.6011 214.031 52.5366 213.971 52.5366C213.971 52.5366 213.951 52.5438 213.911 52.5581C210.833 54.3858 207.755 56.2136 204.697 58.0413C201.959 59.654 196.183 59.7185 196.503 54.7944C196.503 54.7729 196.483 54.7084 196.443 54.7084H196.383C193.745 56.9232 187.749 60.3636 184.391 58.9444C182.413 58.0843 181.114 55.848 180.914 53.6547C180.894 53.2677 180.834 52.9452 180.774 52.7731C180.754 52.7086 180.714 52.6871 180.654 52.7086C180.654 52.7086 180.634 52.7086 180.634 52.7301C178.116 55.246 175.717 56.4501 172.3 58.0843C169.322 59.5035 160.248 61.8903 162.087 54.6224C162.427 53.2892 162.906 52.1281 163.586 51.0529C166.464 46.5589 169.362 42.0863 172.24 37.6137C172.979 36.4956 173.899 34.5388 172.36 33.5927C171.201 32.8616 169.022 33.7432 168.003 34.4528C166.764 35.3344 165.545 37.4632 164.645 38.9039C157.55 50.3433 150.515 61.7828 143.46 73.2867C143.4 73.3727 143.3 73.4373 143.2 73.4373H134.426C134.426 73.4373 134.346 73.4158 134.346 73.3512C134.346 73.3512 134.353 73.3297 134.366 73.2867L145.539 55.1169C145.539 55.1169 145.539 55.0309 145.519 54.9879C145.499 54.9879 145.459 54.9664 145.439 54.9879C143.86 55.9555 142.221 56.8802 140.522 57.6973C138.064 58.9229 130.929 61.2667 129.39 57.8263C128.51 55.9125 129.949 52.5581 131.029 50.8809C135.006 44.6236 137.764 40.3876 139.263 38.1298C142.401 33.3777 138.703 32.238 135.466 34.4743C134.906 34.8614 134.246 35.5925 133.567 36.6031C128.75 43.8065 123.954 51.0314 119.137 58.2348C119.077 58.2993 118.997 58.3638 118.917 58.3638H109.763C109.763 58.3638 109.684 58.3423 109.684 58.2778C114.2 51.311 118.697 44.3441 123.194 37.3987C123.614 36.7321 124.034 35.7 123.934 34.8399C123.574 32.3241 120.236 33.5282 118.937 34.4743C118.377 34.9044 117.778 35.571 117.158 36.5171C112.442 43.7205 107.705 50.9669 103.028 58.2133C102.968 58.2993 102.888 58.3638 102.768 58.3638H93.7546C93.5947 58.3638 93.5548 58.2993 93.6347 58.1488L96.073 54.5364C96.073 54.5364 96.093 54.4073 96.053 54.3858C96.033 54.3643 95.9731 54.3643 95.9331 54.3858C93.7546 55.7835 91.4962 57.0522 89.1378 58.2778C86.3198 59.74 81.1434 59.4605 81.3633 54.8374C81.3633 54.7084 81.3033 54.6869 81.2434 54.7514L81.2234 54.7944ZM88.7181 5.74669C87.2791 4.73606 84.9208 5.31663 83.4618 5.8757C73.9884 9.33764 66.7534 16.197 61.2973 25.0991C61.2373 25.1851 61.2773 25.2282 61.3572 25.2282C69.8713 24.2605 77.506 20.9921 84.2413 15.4874C86 14.0682 87.0993 13.0576 88.3184 11.3589C89.2578 9.98272 90.4369 6.97234 88.7381 5.76819L88.7181 5.74669ZM349.356 7.87546C348.397 7.16587 347.358 7.16587 346.239 7.87546C340.183 11.6169 335.286 16.6701 331.589 23.0349C331.569 23.0994 331.569 23.1639 331.609 23.1854C331.629 23.2069 331.669 23.2069 331.689 23.1854C338.024 21.4007 345.059 17.6592 348.797 11.6814C349.336 10.8643 350.416 8.67106 349.336 7.87546H349.356ZM75.5273 46.9029C74.9677 52.4721 81.1834 49.0532 82.9022 47.763C87.3391 44.4086 90.2171 39.9145 91.5362 34.2593C91.6961 33.5927 91.6761 32.0445 91.3963 31.4639C90.297 28.9696 87.1592 30.7113 85.7202 31.636C80.5838 34.9474 76.2268 40.194 75.5473 46.9029H75.5273ZM191.027 49.0317C192.846 51.9775 198.801 47.419 200.28 45.9998C203.398 42.9249 206.136 38.3233 206.696 33.7647C207.535 27.1849 201.16 31.3349 199.201 32.7971C194.624 36.2375 191.227 41.1832 190.667 47.2254C190.607 47.935 190.727 48.5371 191.027 49.0532V49.0317ZM224.224 45.7417C223.624 49.0532 224.723 50.8594 228.041 49.6122C233.377 47.6125 237.494 42.2798 239.433 36.7536C239.933 35.3344 240.652 32.3456 239.793 31.0554C238.654 29.3567 236.035 30.5178 234.676 31.3564C229.68 34.4528 225.343 39.3769 224.224 45.7417ZM289.118 45.5697C288.179 48.9457 289.478 52.8161 293.435 50.6874C296.233 49.1607 298.612 47.0749 300.57 44.4301C300.63 44.3656 300.63 44.2581 300.59 44.1936C298.632 39.807 300.59 35.1839 304.568 33.2702C304.648 33.2487 304.688 33.1412 304.648 33.0551C303.968 30.5608 300.231 32.238 298.852 33.1842C294.535 36.13 290.557 40.151 289.098 45.5912L289.118 45.5697ZM331.809 48.7951C332.268 52.085 335.366 51.4185 337.205 50.2788C339.663 48.7521 341.782 46.8169 343.54 44.4086C343.6 44.3441 343.6 44.2366 343.56 44.172C341.602 39.7855 343.501 35.1624 347.518 33.2917C347.658 33.2272 347.718 33.0551 347.658 32.9261C347.658 32.9261 347.658 32.9046 347.638 32.9046C345.039 28.7761 337.345 36.7966 335.646 38.8394C333.527 41.3122 331.329 45.3117 331.809 48.8166V48.7951ZM205.956 80.5547C207.575 83.221 213.251 77.3292 214.73 75.5875C217.448 72.3836 219.867 68.9647 222.005 65.2662C222.025 65.2447 222.005 65.1802 221.985 65.1802C221.965 65.1802 221.965 65.1587 221.925 65.1802C216.049 67.3305 209.974 71.4805 206.576 77.2217C206.156 77.9743 205.497 79.7376 205.976 80.5332L205.956 80.5547Z" fill="white"/>
</g>
<defs>
<clipPath id="clip0_480_2902">
<rect width="373" height="87" fill="white" transform="translate(0 0.5)"/>
</clipPath>
</defs>
</svg>
