<svg width="291" height="82" viewBox="0 0 291 82" fill="none" xmlns="http://www.w3.org/2000/svg">
<path d="M125.213 51.3325H110.531C102.432 51.3325 102.492 45.6711 102.492 45.6711V36.1488C102.492 36.1488 102.432 30.8275 108.896 30.8275H125.093V35.3686H111.748C107.838 35.3686 108.038 38.7494 108.038 38.7494V43.2105C108.038 43.2105 107.958 46.8314 111.748 46.8314H125.193V51.3125" fill="white"/>
<path d="M152.422 36.949V51.3525H130.28C129.602 51.3525 129.003 51.1125 128.445 50.6124C127.886 50.1322 127.607 49.5121 127.607 48.7919L127.547 42.2503C127.547 41.1901 127.846 40.4099 128.445 39.7497C128.983 39.1696 129.641 38.8895 130.399 38.8895H144.562C145.241 38.8895 145.879 39.0695 146.438 39.4496C146.837 39.7297 147.156 40.0498 147.415 40.4299V38.6094C147.415 38.0293 147.196 36.789 146.737 36.3089C146.198 35.7487 145.54 35.4487 144.782 35.4487H127.746V30.8475H146.338C146.338 30.8475 152.442 30.9476 152.442 36.949H152.422ZM146.398 45.171C146.398 43.4106 144.762 43.4106 144.762 43.4106H133.93C133.93 43.4106 132.354 43.4306 132.354 45.171C132.354 45.171 132.354 46.8914 133.93 46.8914H144.762C144.762 46.8914 146.398 46.9315 146.398 45.171Z" fill="white"/>
<path d="M179.551 48.4118V42.1103C179.551 38.9695 176.1 38.8895 176.1 38.8895H162.416C161.817 38.8895 160.541 38.8295 160.541 37.1291C160.541 35.2486 162.336 35.4286 162.336 35.4286H178.534L178.594 30.8475H158.626C157.708 30.8475 156.91 31.2076 156.272 31.9078C155.753 32.4879 155.474 33.0481 155.474 33.5682V40.4699C155.474 40.4699 155.354 43.3906 158.725 43.3906H172.928C172.928 43.3906 174.644 43.4306 174.644 45.171C174.644 46.9115 172.928 46.8714 172.928 46.8714H154.796V51.3525H176.878C177.736 51.3525 178.394 51.0525 178.893 50.4323C179.332 49.8922 179.551 49.212 179.551 48.4318" fill="white"/>
<path d="M212.665 35.4086H202.83V51.3325H197.464V30.8275H212.645V35.4086H212.665ZM196.008 51.3325H190.642V35.4086H180.808V30.8275H195.988V51.3325" fill="white"/>
<path d="M214.42 45.7312V36.0288C214.42 36.0288 214.56 30.8275 219.906 30.8275H234.069C234.069 30.8275 238.597 30.7675 238.597 36.0288V40.3899C238.597 41.2501 238.397 41.8702 237.998 42.3704C237.5 43.0105 236.722 43.3906 235.665 43.3906H219.926V44.911C219.926 45.3911 220.105 45.8512 220.464 46.2513C220.823 46.6714 221.222 46.8715 221.661 46.8715H238.318V51.3325H220.644C214.56 51.3325 214.46 45.7312 214.46 45.7312H214.42ZM221.801 35.3887L233.211 37.1291C233.211 35.4487 231.436 35.3887 231.436 35.3887H221.98C219.906 35.3887 219.886 37.1291 219.886 37.1291V38.8695H233.191V37.1291L221.801 35.3887Z" fill="white"/>
<path d="M261.836 51.3325H246.696C240.432 51.3325 240.771 46.3513 240.771 46.3513V30.8275H246.037V43.7307C246.037 43.7307 246.017 46.8714 249.628 46.8714H261.836V51.3325Z" fill="white"/>
<path d="M284.437 51.2925H269.297C263.033 51.2925 263.372 46.3113 263.372 46.3113V30.8275H268.638V43.6907C268.638 43.6907 268.579 46.8714 272.189 46.8714H284.397L284.437 51.2925Z" fill="white"/>
<path d="M291 51.3325H285.734V30.8275H291V51.3325Z" fill="white"/>
<path d="M4.50823 41.03C4.50823 31.2876 8.29833 22.1253 15.1604 15.2437C22.0225 8.34199 31.1586 4.56106 40.8932 4.56106C60.9608 4.56106 77.2782 20.9251 77.2782 41.05C77.2782 61.1749 60.9608 77.5389 40.8932 77.5389C20.8256 77.5389 4.50823 61.1549 4.50823 41.03ZM13.0659 13.1632C5.66521 20.605 1.55594 30.4874 1.55594 41.03C1.55594 62.7753 19.1899 80.4796 40.8732 80.4796C62.5566 80.4796 80.1906 62.7953 80.1906 41.05C80.1906 19.3047 62.5566 1.60034 40.8732 1.60034C30.3807 1.60034 20.5064 5.70134 13.0659 13.1632Z" fill="white"/>
<path d="M15.3798 52.8528C15.6392 53.9131 15.6791 55.1334 17.0754 57.1939C17.993 58.5342 19.3096 59.0343 20.2072 59.4344C22.3416 60.3746 24.0771 59.6945 25.1543 58.5142C26.0719 57.4939 26.3312 56.5737 26.411 56.0336C26.5108 55.3934 26.8499 54.8333 27.8872 55.6935C28.9644 56.5937 29.4232 57.554 29.4232 57.554C29.4232 57.554 29.7822 58.0541 28.6851 58.9743C27.8473 59.6545 26.1318 61.675 22.2419 61.675C18.8707 61.675 13.4648 58.3341 13.4848 52.5127C13.4848 52.3527 15.3 52.6127 15.3599 52.8528" fill="white"/>
<path d="M38.9383 30.8275C39.4968 31.0476 40.4543 31.3076 38.8386 32.1478C37.1031 33.0481 34.8091 32.4079 34.5298 30.6275C33.9713 27.0866 37.0034 24.666 37.7614 24.2659C39.3772 23.4657 38.5992 24.526 38.2002 25.2862C35.8264 29.7873 38.8785 30.7875 38.9383 30.8075" fill="white"/>
<path d="M57.7691 46.3513C59.4447 45.211 59.5046 45.8712 58.7466 47.0715C57.5298 48.992 54.2982 50.8324 52.3433 49.7121C51.0068 48.9519 50.3086 47.2315 51.6451 45.111C52.084 44.4108 52.3233 44.3308 52.7223 45.4111C53.5003 47.5716 55.7743 47.5116 57.7891 46.3513" fill="white"/>
<path d="M52.1239 53.253C53.2808 53.0529 54.2982 52.9729 52.3433 54.2732C50.7874 55.3135 47.7154 55.3335 46.6182 53.9731C45.4214 52.4928 46.7579 50.9324 47.1369 50.4723C47.8151 49.6321 48.3737 49.172 48.3737 50.8324C48.3737 53.0129 50.2887 53.273 52.1239 53.273" fill="white"/>
<path d="M45.561 57.1739C47.3364 57.274 47.5159 57.9541 45.96 58.1942C42.8281 58.6943 41.4318 57.554 41.1725 56.6738C40.8932 55.8136 41.1725 55.0934 41.3919 54.8534C42.0103 54.1332 42.6885 53.7531 43.0077 53.7331C43.4066 53.6731 43.3867 53.8131 43.2471 54.4533C43.1673 54.8934 42.8481 56.5938 45.561 57.1739Z" fill="white"/>
<path d="M40.1551 60.4746C41.1525 60.7347 41.3121 61.3549 39.5367 61.1748C38.3 61.0548 35.7466 59.8945 35.8863 58.2341C36.0259 56.6337 37.4223 56.3736 38.1603 56.2736C38.9183 56.1736 38.8386 56.4137 38.3199 57.2539C37.4821 58.6142 38.9183 60.0745 40.1551 60.4546" fill="white"/>
<path d="M33.712 35.2686C34.8889 35.0685 34.8091 35.3686 33.9513 36.4289C32.9539 37.6892 30.9791 37.9893 30.0814 36.4289C29.3234 35.1286 29.2237 32.748 30.3408 31.0476C31.5177 29.2471 31.4778 29.7272 31.378 30.8675C31.0589 34.3684 32.2757 35.1086 33.712 35.2686Z" fill="white"/>
<path d="M29.7822 40.3698C31.3781 40.0897 30.8594 40.7098 30.0615 41.7501C29.3633 42.6903 27.4284 43.4305 26.5108 40.8699C25.9522 39.3095 26.3113 37.9892 26.5507 37.249C26.81 36.5088 27.4084 35.6086 27.3087 37.6291C27.2488 38.6893 28.0268 40.4898 29.8022 40.3698" fill="white"/>
<path d="M27.1291 45.5111C28.4457 44.8309 28.3859 45.351 27.9869 46.4113C27.5879 47.4715 26.6504 48.4718 25.2341 47.6516C24.117 47.0114 23.3191 45.251 23.3989 43.7706C23.4787 42.2703 23.8178 42.4903 24.2766 43.8707C24.7155 45.191 25.8126 45.8912 27.1291 45.5111Z" fill="white"/>
<path d="M57.1507 14.5636C57.1707 14.3635 56.4326 14.0234 56.0337 13.8434C53.6399 12.7431 50.2687 11.3228 48.7926 12.8431C46.5584 15.1437 48.1542 18.8446 49.9695 20.7251C51.7847 22.6055 53.1013 21.9053 53.8593 21.1252C54.6772 20.2649 54.6971 19.5848 54.5176 19.4447C54.3181 19.2847 53.999 19.4447 53.6399 19.4847C52.9218 19.5248 52.3233 19.5248 51.2661 18.4445C50.3086 17.4443 50.9868 15.9039 51.3858 15.5038C52.5228 14.3435 54.7769 14.5836 56.2132 14.7236C56.7119 14.7636 57.1108 14.8436 57.1308 14.6036" fill="white"/>
<path d="M68.0024 25.7662C68.2019 25.7462 68.521 26.5064 68.7006 26.9065C69.7578 29.3671 71.1542 32.8279 69.678 34.3683C67.4439 36.6689 63.8532 35.0285 62.038 33.168C60.2227 31.2876 60.881 29.9472 61.659 29.147C62.4768 28.2868 63.1551 28.2668 63.2947 28.4669C63.4543 28.6669 63.2947 29.007 63.2548 29.3671C63.2149 30.1073 63.2149 30.7274 64.2721 31.8077C65.2496 32.8079 66.7257 32.1078 67.1446 31.6877C68.2817 30.5274 68.0423 28.2068 67.9027 26.7065C67.8628 26.2063 67.783 25.7862 68.0223 25.7462" fill="white"/>
<path d="M16.9757 42.9904C20.7857 43.2905 20.0077 43.8906 19.1699 44.3908C18.6513 44.6908 16.3972 46.4513 16.4171 48.3317C16.4171 49.412 17.7337 51.1524 15.6392 51.6725C14.6418 51.9126 13.7441 51.6725 12.4674 50.6723C11.5299 49.8321 11.111 48.3117 11.2506 47.2715C11.5099 44.9509 13.9236 42.7503 16.9757 42.9904Z" fill="white"/>
<path d="M56.9712 30.9475C58.0085 31.0475 59.4647 30.5874 57.7292 31.8077C56.9114 32.3678 54.7171 32.2478 53.1013 30.5674C51.5653 28.967 51.1265 26.4464 51.8246 25.3461C52.5228 24.2258 52.4829 24.6259 52.5428 26.3863C52.5827 28.0668 54.6572 30.9075 56.9912 30.9475" fill="white"/>
<path fill-rule="evenodd" clip-rule="evenodd" d="M62.5967 35.7487C62.2376 36.749 61.699 37.7692 60.8413 38.2293C59.1656 39.1684 57.747 38.6014 56.4184 38.0704L56.4183 38.0704C56.1336 37.9566 55.8531 37.8445 55.575 37.7492C54.817 37.4891 54.8569 37.1691 55.0165 36.6689C55.0464 36.5791 55.0818 36.4808 55.1207 36.3731L55.1207 36.3731C55.2893 35.9058 55.5214 35.2626 55.6349 34.3684C55.6416 34.3102 55.6482 34.2553 55.6543 34.2033C55.7113 33.7242 55.7381 33.4984 55.6407 33.3602C55.5538 33.2371 55.3682 33.1835 55.0173 33.0823C54.923 33.0551 54.8168 33.0244 54.6973 32.988C53.5004 32.628 51.366 30.5474 50.6479 28.907C50.5569 28.7035 50.5101 28.5074 50.4696 28.3376C50.3947 28.0235 50.3414 27.7998 50.0694 27.7868C49.1119 27.7468 47.2568 28.4269 47.2568 28.4269C47.2568 28.4269 46.5386 28.767 46.0798 27.9668C45.4814 26.9466 44.464 24.806 45.1622 22.8656C45.5412 21.8053 46.7182 21.1051 47.8552 20.645C48.0547 20.565 48.0347 20.325 47.9749 20.2449C47.6158 19.7248 47.3565 19.2647 46.8977 18.2044C46.6783 17.6843 46.5586 17.1642 46.4987 16.7641C46.4588 16.464 46.1995 16.344 45.9402 16.444C43.726 17.4242 41.9706 19.0847 41.1926 21.5653C40.1752 24.8861 42.1301 28.807 42.7685 29.6472C43.2672 30.3074 42.4094 30.6475 42.4094 30.6475C42.4094 30.6475 38.2602 32.908 33.6722 38.0493C28.8448 43.4506 27.269 50.7524 27.0695 52.8729C27.0646 52.9276 27.06 52.98 27.0555 53.0303C26.9879 53.7892 26.9648 54.0489 27.0804 54.2075C27.1405 54.29 27.2382 54.3451 27.3866 54.4289C27.4794 54.4813 27.592 54.5448 27.7278 54.6333C28.386 55.0534 29.4832 56.0337 29.9021 56.8339C30.3209 57.6009 30.4738 57.5843 31.2561 57.4995C31.3307 57.4914 31.4111 57.4827 31.4979 57.474C38.2204 56.7538 43.4866 52.6328 46.2594 50.1122C49.7901 46.8914 52.3834 42.4704 52.902 41.5101C52.9385 41.4422 52.9709 41.3756 53.0016 41.3125C53.206 40.8924 53.3358 40.6257 54.0989 41.13L54.1637 41.1717C55.012 41.7188 58.5067 43.9722 62.0581 42.5904C64.6513 41.5901 66.1474 39.3296 67.0451 37.1491C67.1049 36.989 66.9852 36.809 66.8057 36.809C65.4891 36.749 64.1327 36.3089 62.9757 35.5887C62.7363 35.4486 62.6366 35.5087 62.5568 35.7687L62.5967 35.7487ZM48.3146 31.5876C48.3146 32.1678 47.8558 32.6479 47.2773 32.6479C46.6988 32.6479 46.24 32.1678 46.24 31.5876C46.24 31.0075 46.6988 30.5274 47.2773 30.5274C47.8558 30.5274 48.3146 31.0075 48.3146 31.5876ZM52.0831 37.5893C52.6616 37.5893 53.1204 37.1092 53.1204 36.529C53.1204 35.9489 52.6616 35.4688 52.0831 35.4688C51.5046 35.4688 51.0458 35.9489 51.0458 36.529C51.0458 37.1092 51.5046 37.5893 52.0831 37.5893Z" fill="white"/>
</svg>
