<svg width="204" height="40" viewBox="0 0 204 40" fill="none" xmlns="http://www.w3.org/2000/svg">
<g clip-path="url(#clip0_480_2908)">
<path d="M93.0328 40L98.3376 11.8466H150.971L150.083 16.9848H116.952L115.913 22.8011H147.403L146.515 28.0285H114.932L113.705 34.7725H147.572L146.629 40H92.995H93.0328ZM178.797 27.9393L183.158 5.19179H203.056L204 0H100.452L99.508 5.13827H162.373L158.107 27.8858L178.797 27.9215V27.9393ZM19.4636 27.9393L22.7862 9.84835L43.9867 21.6949L69.548 9.93756L66.131 27.9393H85.5569L90.6918 0.0356824H72.2099L45.8368 11.9715L23.8812 0H5.21044L0 27.9393H19.4636Z" fill="white"/>
</g>
<defs>
<clipPath id="clip0_480_2908">
<rect width="204" height="40" fill="white"/>
</clipPath>
</defs>
</svg>
