<svg width="228" height="50" viewBox="0 0 228 50" fill="none" xmlns="http://www.w3.org/2000/svg">
<g clip-path="url(#clip0_480_2884)">
<path d="M57.1505 23.7539H86.7651C91.5793 23.7539 95.4817 27.6754 95.4817 32.5131C95.4817 36.1963 93.2205 39.3665 89.9928 40.6492L96.1017 49.5H79.252L74.912 41.2722H71.1007V49.5H57.1505V23.7539ZM78.1214 29.2146H71.1372V35.3534H78.1397C79.8173 35.3534 81.2032 33.979 81.2032 32.2932C81.2032 30.6073 79.8356 29.233 78.1397 29.233" fill="white"/>
<path d="M158.431 43.8377H172.783V49.5H143.952V23.7539H158.431V43.8377Z" fill="white"/>
<path d="M118.185 43.8377H135.892V49.5H103.432V23.7539H134.287V29.4162H118.185V33.7958H134.287V39.4581H118.185V43.8377Z" fill="white"/>
<path d="M191.438 43.8377H205.789V49.5H176.94V23.7539H191.438V43.8377Z" fill="white"/>
<path d="M0 0.5H219.028C223.97 0.5 227.982 4.53141 227.982 9.49738C227.982 14.4634 223.97 18.4948 219.028 18.4948H24.4175V49.5H0V0.5ZM192.076 6.43717H24.4175V12.4476H192.076C193.717 12.4476 195.066 11.1099 195.066 9.44241C195.066 7.77487 193.735 6.43717 192.076 6.43717Z" fill="white"/>
<path d="M47.7591 23.7539H33.8088V49.5H47.7591V23.7539Z" fill="white"/>
<path d="M223.769 23.7539H209.819V49.5H223.769V23.7539Z" fill="white"/>
</g>
<defs>
<clipPath id="clip0_480_2884">
<rect width="228" height="49" fill="white" transform="translate(0 0.5)"/>
</clipPath>
</defs>
</svg>
