<svg width="150" height="107" viewBox="0 0 150 107" fill="none" xmlns="http://www.w3.org/2000/svg">
<g clip-path="url(#clip0_436_96)">
<path d="M99.8894 23.2609C106.304 23.2609 111.504 18.0537 111.504 11.6304C111.504 5.20712 106.304 0 99.8894 0C93.4746 0 88.2744 5.20712 88.2744 11.6304C88.2744 18.0537 93.4746 23.2609 99.8894 23.2609Z" fill="white"/>
<path fill-rule="evenodd" clip-rule="evenodd" d="M30.8628 58.4845C21.149 58.4845 13.2743 66.3696 13.2743 76.0963C13.2743 85.823 21.149 93.7081 30.8628 93.7081C40.5767 93.7081 48.4513 85.823 48.4513 76.0963C48.4513 66.3696 40.5767 58.4845 30.8628 58.4845ZM0 76.0963C0 59.0286 13.8178 45.1926 30.8628 45.1926C47.9079 45.1926 61.7257 59.0286 61.7257 76.0963C61.7257 93.1639 47.9079 107 30.8628 107C13.8178 107 0 93.1639 0 76.0963Z" fill="white"/>
<path fill-rule="evenodd" clip-rule="evenodd" d="M119.137 58.4845C109.423 58.4845 101.549 66.3696 101.549 76.0963C101.549 85.823 109.423 93.7081 119.137 93.7081C128.851 93.7081 136.726 85.823 136.726 76.0963C136.726 66.3696 128.851 58.4845 119.137 58.4845ZM88.2744 76.0963C88.2744 59.0286 102.092 45.1926 119.137 45.1926C136.182 45.1926 150 59.0286 150 76.0963C150 93.1639 136.182 107 119.137 107C102.092 107 88.2744 93.1639 88.2744 76.0963Z" fill="white"/>
<path fill-rule="evenodd" clip-rule="evenodd" d="M81.8386 13.5674L99.8832 33.8944H101.156L105.626 31.4078L112.073 43.027L104.596 47.1864H93.9221L80.1083 31.6252L70.106 39.2841L92.7659 47.0838L66.5104 84.876L55.6135 77.2855L71.8359 53.9349L57.0826 48.8567L48.9863 38.723L81.8386 13.5674Z" fill="white"/>
</g>
<defs>
<clipPath id="clip0_436_96">
<rect width="150" height="107" fill="white"/>
</clipPath>
</defs>
</svg>
