<svg width="183" height="55" viewBox="0 0 183 55" fill="none" xmlns="http://www.w3.org/2000/svg">
<g clip-path="url(#clip0_869_64)">
<path d="M49.2788 12.4119C52.4434 12.4119 55.0089 9.78397 55.0089 6.54229C55.0089 3.30062 52.4434 0.672729 49.2788 0.672729C46.1141 0.672729 43.5487 3.30062 43.5487 6.54229C43.5487 9.78397 46.1141 12.4119 49.2788 12.4119Z" fill="white"/>
<path fill-rule="evenodd" clip-rule="evenodd" d="M15.2257 30.1883C10.4335 30.1883 6.54867 34.1677 6.54867 39.0765C6.54867 43.9853 10.4335 47.9647 15.2257 47.9647C20.0178 47.9647 23.9027 43.9853 23.9027 39.0765C23.9027 34.1677 20.0178 30.1883 15.2257 30.1883ZM0 39.0765C0 30.4629 6.81676 23.4802 15.2257 23.4802C23.6346 23.4802 30.4513 30.4629 30.4513 39.0765C30.4513 47.6901 23.6346 54.6728 15.2257 54.6728C6.81676 54.6728 0 47.6901 0 39.0765Z" fill="white"/>
<path fill-rule="evenodd" clip-rule="evenodd" d="M58.7743 30.1883C53.9822 30.1883 50.0973 34.1677 50.0973 39.0765C50.0973 43.9853 53.9822 47.9647 58.7743 47.9647C63.5665 47.9647 67.4513 43.9853 67.4513 39.0765C67.4513 34.1677 63.5665 30.1883 58.7743 30.1883ZM43.5487 39.0765C43.5487 30.4629 50.3654 23.4802 58.7743 23.4802C67.1832 23.4802 74 30.4629 74 39.0765C74 47.6901 67.1832 54.6728 58.7743 54.6728C50.3654 54.6728 43.5487 47.6901 43.5487 39.0765Z" fill="white"/>
<path fill-rule="evenodd" clip-rule="evenodd" d="M40.3737 7.51978L49.2757 17.7783H49.9037L52.109 16.5234L55.2893 22.3873L51.6007 24.4864H46.3349L39.5201 16.6331L34.5856 20.4983L45.7645 24.4346L32.8118 43.5073L27.436 39.6766L35.439 27.8922L28.1607 25.3294L24.1666 20.2151L40.3737 7.51978Z" fill="white"/>
</g>
<path d="M179.777 21.8208C179.102 21.8208 178.765 21.4981 178.765 20.8528V18.0808C178.765 17.2888 178.515 16.6581 178.017 16.1888C177.547 15.6901 176.917 15.4408 176.125 15.4408C175.333 15.4408 174.687 15.6901 174.189 16.1888C173.719 16.6581 173.485 17.2888 173.485 18.0808V37.2648C173.485 38.0568 173.719 38.7021 174.189 39.2008C174.687 39.6701 175.347 39.9048 176.169 39.9048C176.961 39.9048 177.606 39.6701 178.105 39.2008C178.603 38.7021 178.853 38.0568 178.853 37.2648V29.1248H177.093C176.447 29.1248 176.125 28.8021 176.125 28.1568V26.7048C176.125 26.0301 176.447 25.6928 177.093 25.6928H181.845C182.49 25.6928 182.813 26.0301 182.813 26.7048V42.1048C182.813 42.7501 182.49 43.0728 181.845 43.0728H181.009C180.334 43.0728 179.997 42.7648 179.997 42.1488V41.3128L180.129 40.8728H179.645L179.557 41.3128C178.823 42.8381 177.357 43.6008 175.157 43.6008C173.426 43.6008 172.033 43.0581 170.977 41.9728C169.95 40.8874 169.437 39.4648 169.437 37.7048V18.0368C169.437 16.1594 170.053 14.6488 171.285 13.5047C172.517 12.3314 174.13 11.7448 176.125 11.7448C178.119 11.7448 179.733 12.3314 180.965 13.5047C182.197 14.6488 182.813 16.1594 182.813 18.0368V20.8528C182.813 21.4981 182.49 21.8208 181.845 21.8208H179.777Z" fill="white"/>
<path d="M151.846 43.0727C151.172 43.0727 150.834 42.75 150.834 42.1047V13.2407C150.834 12.5954 151.172 12.2727 151.846 12.2727H155.278C155.865 12.2727 156.232 12.566 156.378 13.1527L160.822 32.0727L161.174 34.9767H162.01L161.658 32.0727V13.2407C161.658 12.5954 161.981 12.2727 162.626 12.2727H164.738C165.384 12.2727 165.706 12.5954 165.706 13.2407V42.1047C165.706 42.75 165.384 43.0727 164.738 43.0727H161.306C160.72 43.0727 160.353 42.7794 160.206 42.1927L155.718 23.2727L155.366 20.3687H154.53L154.882 23.2727V42.1047C154.882 42.75 154.56 43.0727 153.914 43.0727H151.846Z" fill="white"/>
<path d="M143.94 43.0727C143.265 43.0727 142.928 42.75 142.928 42.1047V13.2407C142.928 12.5954 143.265 12.2727 143.94 12.2727H146.008C146.653 12.2727 146.976 12.5954 146.976 13.2407V42.1047C146.976 42.75 146.653 43.0727 146.008 43.0727H143.94Z" fill="white"/>
<path d="M139.522 39.3767C140.197 39.3767 140.534 39.6994 140.534 40.3447V42.1047C140.534 42.75 140.197 43.0727 139.522 43.0727H131.866C131.191 43.0727 130.854 42.75 130.854 42.1047V13.2407C130.854 12.5954 131.191 12.2727 131.866 12.2727H133.934C134.579 12.2727 134.902 12.5954 134.902 13.2407V39.3767H139.522Z" fill="white"/>
<path d="M125.363 41.8848C124.131 43.0288 122.518 43.6008 120.523 43.6008C118.529 43.6008 116.915 43.0288 115.683 41.8848C114.451 40.7114 113.835 39.1861 113.835 37.3088V18.0368C113.835 16.1594 114.451 14.6488 115.683 13.5047C116.915 12.3314 118.529 11.7448 120.523 11.7448C122.518 11.7448 124.131 12.3314 125.363 13.5047C126.595 14.6488 127.211 16.1594 127.211 18.0368V22.9648C127.211 23.6101 126.889 23.9328 126.243 23.9328H124.175C123.501 23.9328 123.163 23.6101 123.163 22.9648V18.0808C123.163 17.2888 122.914 16.6581 122.415 16.1888C121.946 15.6901 121.315 15.4408 120.523 15.4408C119.731 15.4408 119.086 15.6901 118.587 16.1888C118.118 16.6581 117.883 17.2888 117.883 18.0808V37.2648C117.883 38.0568 118.118 38.7021 118.587 39.2008C119.086 39.6701 119.731 39.9048 120.523 39.9048C121.315 39.9048 121.946 39.6701 122.415 39.2008C122.914 38.7021 123.163 38.0568 123.163 37.2648V31.9408C123.163 31.2954 123.501 30.9728 124.175 30.9728H126.243C126.889 30.9728 127.211 31.2954 127.211 31.9408V37.3088C127.211 39.1861 126.595 40.7114 125.363 41.8848Z" fill="white"/>
<path d="M111.279 12.2727C111.631 12.2727 111.88 12.3754 112.027 12.5807C112.203 12.786 112.247 13.05 112.159 13.3727L107.187 31.2367V42.1047C107.187 42.75 106.849 43.0727 106.175 43.0727H104.107C103.461 43.0727 103.139 42.75 103.139 42.1047V31.2807L98.1227 13.3727C97.9761 12.6394 98.2694 12.2727 99.0027 12.2727H101.247C101.863 12.2727 102.215 12.5807 102.303 13.1967L104.811 23.7567V26.3967H105.691V23.7567L108.199 13.1967C108.287 12.5807 108.639 12.2727 109.255 12.2727H111.279Z" fill="white"/>
<path d="M94.6835 41.8848C93.4515 43.0288 91.8382 43.6008 89.8435 43.6008C87.8489 43.6008 86.2355 43.0288 85.0035 41.8848C83.7715 40.7114 83.1555 39.1861 83.1555 37.3088V18.0368C83.1555 16.1594 83.7715 14.6488 85.0035 13.5047C86.2355 12.3314 87.8489 11.7448 89.8435 11.7448C91.8382 11.7448 93.4515 12.3314 94.6835 13.5047C95.9155 14.6488 96.5315 16.1594 96.5315 18.0368V22.9648C96.5315 23.6101 96.2089 23.9328 95.5635 23.9328H93.4955C92.8209 23.9328 92.4835 23.6101 92.4835 22.9648V18.0808C92.4835 17.2888 92.2342 16.6581 91.7355 16.1888C91.2662 15.6901 90.6355 15.4408 89.8435 15.4408C89.0515 15.4408 88.4062 15.6901 87.9075 16.1888C87.4382 16.6581 87.2035 17.2888 87.2035 18.0808V37.2648C87.2035 38.0568 87.4382 38.7021 87.9075 39.2008C88.4062 39.6701 89.0515 39.9048 89.8435 39.9048C90.6355 39.9048 91.2662 39.6701 91.7355 39.2008C92.2342 38.7021 92.4835 38.0568 92.4835 37.2648V31.9408C92.4835 31.2954 92.8209 30.9728 93.4955 30.9728H95.5635C96.2089 30.9728 96.5315 31.2954 96.5315 31.9408V37.3088C96.5315 39.1861 95.9155 40.7114 94.6835 41.8848Z" fill="white"/>
<defs>
<clipPath id="clip0_869_64">
<rect width="74" height="54" fill="white" transform="translate(0 0.672729)"/>
</clipPath>
</defs>
</svg>
