<svg width="184" height="53" viewBox="0 0 184 53" fill="none" xmlns="http://www.w3.org/2000/svg">
<path d="M39.9832 12.5535C43.264 12.5535 45.9236 9.89387 45.9236 6.6131C45.9236 3.33232 43.264 0.672729 39.9832 0.672729C36.7024 0.672729 34.0428 3.33232 34.0428 6.6131C34.0428 9.89387 36.7024 12.5535 39.9832 12.5535Z" fill="white"/>
<path fill-rule="evenodd" clip-rule="evenodd" d="M30.8215 9.11755L41.7331 18.3243H41.7709L46.9912 14.5541L50.9661 20.0578L43.9662 25.1133H39.2517L28.4386 15.9897L20.628 16.2501L14.6942 20.7004L10.6208 15.2692L18.265 9.5361L30.8215 9.11755Z" fill="white"/>
<path fill-rule="evenodd" clip-rule="evenodd" d="M0 48.2725L29.5321 11.6119L34.8191 15.8709L5.28696 52.5314L0 48.2725Z" fill="white"/>
<path fill-rule="evenodd" clip-rule="evenodd" d="M20.4916 24.4343L42.4864 24.6117L33.3093 41.9746L27.3072 38.8021L31.2668 31.3105L20.4368 31.2231L20.4916 24.4343Z" fill="white"/>
<path d="M180.964 20.7501C180.289 20.7501 179.952 20.4274 179.952 19.7821V17.0101C179.952 16.2181 179.703 15.5874 179.204 15.1181C178.735 14.6194 178.104 14.3701 177.312 14.3701C176.52 14.3701 175.875 14.6194 175.376 15.1181C174.907 15.5874 174.672 16.2181 174.672 17.0101V36.1941C174.672 36.9861 174.907 37.6314 175.376 38.1301C175.875 38.5994 176.535 38.8341 177.356 38.8341C178.148 38.8341 178.793 38.5994 179.292 38.1301C179.791 37.6314 180.04 36.9861 180.04 36.1941V28.0541H178.28C177.635 28.0541 177.312 27.7314 177.312 27.0861V25.6341C177.312 24.9594 177.635 24.6221 178.28 24.6221H183.032C183.677 24.6221 184 24.9594 184 25.6341V41.0341C184 41.6794 183.677 42.0021 183.032 42.0021H182.196C181.521 42.0021 181.184 41.6941 181.184 41.0781V40.2421L181.316 39.8021H180.832L180.744 40.2421C180.011 41.7674 178.544 42.5301 176.344 42.5301C174.613 42.5301 173.22 41.9874 172.164 40.9021C171.137 39.8167 170.624 38.3941 170.624 36.6341V16.9661C170.624 15.0887 171.24 13.5781 172.472 12.4341C173.704 11.2607 175.317 10.6741 177.312 10.6741C179.307 10.6741 180.92 11.2607 182.152 12.4341C183.384 13.5781 184 15.0887 184 16.9661V19.7821C184 20.4274 183.677 20.7501 183.032 20.7501H180.964Z" fill="white"/>
<path d="M153.034 42.002C152.359 42.002 152.022 41.6794 152.022 41.034V12.17C152.022 11.5247 152.359 11.202 153.034 11.202H156.466C157.052 11.202 157.419 11.4954 157.566 12.082L162.01 31.002L162.362 33.906H163.198L162.846 31.002V12.17C162.846 11.5247 163.168 11.202 163.814 11.202H165.926C166.571 11.202 166.894 11.5247 166.894 12.17V41.034C166.894 41.6794 166.571 42.002 165.926 42.002H162.494C161.907 42.002 161.54 41.7087 161.394 41.122L156.906 22.202L156.554 19.298H155.718L156.07 22.202V41.034C156.07 41.6794 155.747 42.002 155.102 42.002H153.034Z" fill="white"/>
<path d="M145.127 42.002C144.453 42.002 144.115 41.6794 144.115 41.034V12.17C144.115 11.5247 144.453 11.202 145.127 11.202H147.195C147.841 11.202 148.163 11.5247 148.163 12.17V41.034C148.163 41.6794 147.841 42.002 147.195 42.002H145.127Z" fill="white"/>
<path d="M126.393 42.002C125.718 42.002 125.381 41.6794 125.381 41.034V12.17C125.381 11.5247 125.718 11.202 126.393 11.202H129.825C130.412 11.202 130.778 11.4954 130.925 12.082L135.369 31.002L135.721 33.906H136.557L136.205 31.002V12.17C136.205 11.5247 136.528 11.202 137.173 11.202H139.285C139.93 11.202 140.253 11.5247 140.253 12.17V41.034C140.253 41.6794 139.93 42.002 139.285 42.002H135.853C135.266 42.002 134.9 41.7087 134.753 41.122L130.265 22.202L129.913 19.298H129.077L129.429 22.202V41.034C129.429 41.6794 129.106 42.002 128.461 42.002H126.393Z" fill="white"/>
<path d="M107.659 42.002C106.984 42.002 106.647 41.6794 106.647 41.034V12.17C106.647 11.5247 106.984 11.202 107.659 11.202H111.091C111.677 11.202 112.044 11.4954 112.191 12.082L116.635 31.002L116.987 33.906H117.823L117.471 31.002V12.17C117.471 11.5247 117.793 11.202 118.439 11.202H120.551C121.196 11.202 121.519 11.5247 121.519 12.17V41.034C121.519 41.6794 121.196 42.002 120.551 42.002H117.119C116.532 42.002 116.165 41.7087 116.019 41.122L111.531 22.202L111.179 19.298H110.343L110.695 22.202V41.034C110.695 41.6794 110.372 42.002 109.727 42.002H107.659Z" fill="white"/>
<path d="M96.189 42.53C94.165 42.53 92.537 41.958 91.305 40.814C90.073 39.6407 89.457 38.1154 89.457 36.238V12.17C89.457 11.5247 89.7944 11.202 90.469 11.202H92.537C93.1824 11.202 93.505 11.5247 93.505 12.17V36.194C93.505 36.986 93.7397 37.6314 94.209 38.13C94.7077 38.5994 95.3677 38.834 96.189 38.834C96.981 38.834 97.6117 38.5994 98.081 38.13C98.5797 37.6314 98.829 36.986 98.829 36.194V12.17C98.829 11.5247 99.1517 11.202 99.797 11.202H101.865C102.54 11.202 102.877 11.5247 102.877 12.17V36.238C102.877 38.1154 102.261 39.6407 101.029 40.814C99.797 41.958 98.1837 42.53 96.189 42.53Z" fill="white"/>
<path d="M86.729 40.902C86.905 41.6354 86.6264 42.002 85.893 42.002H83.737C83.1797 42.002 82.8277 41.7087 82.681 41.122L79.689 29.506H77.093V41.034C77.093 41.6794 76.7704 42.002 76.125 42.002H74.057C73.3824 42.002 73.045 41.6794 73.045 41.034V12.17C73.045 11.5247 73.3824 11.202 74.057 11.202H80.085C81.9917 11.202 83.5317 11.7594 84.705 12.874C85.8784 13.9594 86.465 15.3967 86.465 17.186V23.61C86.465 25.986 85.4677 27.702 83.473 28.758L86.729 40.902ZM77.093 14.898V25.986H79.777C80.569 25.986 81.1997 25.7514 81.669 25.282C82.1677 24.7834 82.417 24.138 82.417 23.346V17.538C82.417 16.746 82.1677 16.1154 81.669 15.646C81.1997 15.1474 80.569 14.898 79.777 14.898H77.093Z" fill="white"/>
</svg>
