<svg width="304" height="49" viewBox="0 0 304 49" fill="none" xmlns="http://www.w3.org/2000/svg">
<path d="M287.882 38.7182C287.207 38.7182 286.87 38.4454 286.87 37.8998V13.4966C286.87 12.951 287.207 12.6782 287.882 12.6782H291.314C291.9 12.6782 292.267 12.9262 292.414 13.4222L296.858 29.4182L297.21 31.8734H298.046L297.694 29.4182V13.4966C297.694 12.951 298.016 12.6782 298.662 12.6782H300.774C301.419 12.6782 301.742 12.951 301.742 13.4966V37.8998C301.742 38.4454 301.419 38.7182 300.774 38.7182H297.342C296.755 38.7182 296.388 38.4702 296.242 37.9742L291.754 21.9782L291.402 19.523H290.566L290.918 21.9782V37.8998C290.918 38.4454 290.595 38.7182 289.95 38.7182H287.882Z" fill="white"/>
<path d="M281.293 37.7138C280.061 38.681 278.448 39.1646 276.453 39.1646C274.458 39.1646 272.845 38.681 271.613 37.7138C270.381 36.7218 269.765 35.4322 269.765 33.845V17.5514C269.765 15.9642 270.381 14.687 271.613 13.7198C272.845 12.7278 274.458 12.2318 276.453 12.2318C278.448 12.2318 280.061 12.7278 281.293 13.7198C282.525 14.687 283.141 15.9642 283.141 17.5514V33.845C283.141 35.4322 282.525 36.7218 281.293 37.7138ZM274.517 35.4446C275.016 35.8414 275.661 36.0398 276.453 36.0398C277.245 36.0398 277.876 35.8414 278.345 35.4446C278.844 35.023 279.093 34.4774 279.093 33.8078V17.5886C279.093 16.919 278.844 16.3858 278.345 15.989C277.876 15.5674 277.245 15.3566 276.453 15.3566C275.661 15.3566 275.016 15.5674 274.517 15.989C274.048 16.3858 273.813 16.919 273.813 17.5886V33.8078C273.813 34.4774 274.048 35.023 274.517 35.4446Z" fill="white"/>
<path d="M266.835 35.5934C267.509 35.5934 267.846 35.8662 267.846 36.4118V37.8998C267.846 38.4454 267.509 38.7182 266.835 38.7182H259.179C258.504 38.7182 258.167 38.4454 258.167 37.8998V13.4966C258.167 12.951 258.504 12.6782 259.179 12.6782H261.247C261.892 12.6782 262.215 12.951 262.215 13.4966V35.5934H266.835Z" fill="white"/>
<path d="M253.301 12.6782C253.976 12.6782 254.313 12.951 254.313 13.4966V37.8998C254.313 38.4454 253.976 38.7182 253.301 38.7182H251.233C250.588 38.7182 250.265 38.4454 250.265 37.8998V27.0374H244.941V37.8998C244.941 38.4454 244.618 38.7182 243.973 38.7182H241.905C241.23 38.7182 240.893 38.4454 240.893 37.8998V13.4966C240.893 12.951 241.23 12.6782 241.905 12.6782H243.973C244.618 12.6782 244.941 12.951 244.941 13.4966V23.987H250.265V13.4966C250.265 12.951 250.588 12.6782 251.233 12.6782H253.301Z" fill="white"/>
<path d="M237.413 12.6782C238.059 12.6782 238.381 12.951 238.381 13.4966V14.9846C238.381 15.5302 238.059 15.803 237.413 15.803H234.641V37.8998C234.641 38.4454 234.319 38.7182 233.673 38.7182H231.561C230.916 38.7182 230.593 38.4454 230.593 37.8998V15.803H227.821C227.176 15.803 226.853 15.5302 226.853 14.9846V13.4966C226.853 12.951 227.176 12.6782 227.821 12.6782H237.413Z" fill="white"/>
<path d="M226.986 37.8254C227.045 38.4206 226.737 38.7182 226.062 38.7182H223.774C223.158 38.7182 222.821 38.4578 222.762 37.937L221.882 31.8734H216.91L216.03 37.937C216.001 38.4578 215.663 38.7182 215.018 38.7182H212.95C212.246 38.7182 211.938 38.4206 212.026 37.8254L216.162 13.4594C216.221 12.9386 216.558 12.6782 217.174 12.6782H221.794C222.41 12.6782 222.762 12.9386 222.85 13.4594L226.986 37.8254ZM217.35 28.9718H221.442L219.858 18.1094V16.0634H218.934V18.1094L217.35 28.9718Z" fill="white"/>
<path d="M206.628 38.7182C205.953 38.7182 205.616 38.4454 205.616 37.8998V13.4966C205.616 12.951 205.953 12.6782 206.628 12.6782H208.696C209.341 12.6782 209.664 12.951 209.664 13.4966V37.8998C209.664 38.4454 209.341 38.7182 208.696 38.7182H206.628Z" fill="white"/>
<path d="M202.628 37.7882C202.804 38.4082 202.525 38.7182 201.792 38.7182H199.636C199.079 38.7182 198.727 38.4702 198.58 37.9742L195.588 28.1534H192.992V37.8998C192.992 38.4454 192.669 38.7182 192.024 38.7182H189.956C189.281 38.7182 188.944 38.4454 188.944 37.8998V13.4966C188.944 12.951 189.281 12.6782 189.956 12.6782H195.984C197.891 12.6782 199.431 13.1494 200.604 14.0918C201.777 15.0094 202.364 16.2246 202.364 17.7374V23.1686C202.364 25.1774 201.367 26.6282 199.372 27.521L202.628 37.7882ZM192.992 15.803V25.1774H195.676C196.468 25.1774 197.099 24.979 197.568 24.5822C198.067 24.1606 198.316 23.615 198.316 22.9454V18.035C198.316 17.3654 198.067 16.8322 197.568 16.4354C197.099 16.0138 196.468 15.803 195.676 15.803H192.992Z" fill="white"/>
<path d="M185.464 12.6782C186.109 12.6782 186.432 12.951 186.432 13.4966V14.9846C186.432 15.5302 186.109 15.803 185.464 15.803H182.692V37.8998C182.692 38.4454 182.369 38.7182 181.724 38.7182H179.612C178.967 38.7182 178.644 38.4454 178.644 37.8998V15.803H175.872C175.227 15.803 174.904 15.5302 174.904 14.9846V13.4966C174.904 12.951 175.227 12.6782 175.872 12.6782H185.464Z" fill="white"/>
<g clip-path="url(#clip0_869_104)">
<path fill-rule="evenodd" clip-rule="evenodd" d="M17.1153 23.4212C14.859 22.9249 12.5078 22.8158 10.2007 23.1005C7.8905 23.3855 5.67151 24.0596 3.67532 25.0826L0.0144653 19.9835C2.81852 18.5464 5.93555 17.5996 9.18076 17.1992C12.426 16.7988 15.7333 16.953 18.9067 17.6526L18.9158 17.6546L18.9249 17.6566C21.4952 18.2358 23.8346 19.1457 25.9474 20.0438C26.6809 20.3556 27.3679 20.6569 28.0312 20.9478C29.3774 21.5381 30.6259 22.0855 31.9668 22.5913M17.1153 23.4212C18.9696 23.8399 20.7888 24.5271 22.7749 25.3714C23.3385 25.611 23.9352 25.8724 24.5534 26.1432C25.9968 26.7756 27.5577 27.4595 29.0899 28.0374L29.0922 28.0382C36.2854 30.7461 44.2097 31.7647 52.0305 30.9868L51.2052 25.0638C44.6461 25.7163 38.0001 24.8622 31.9673 22.5915" fill="white"/>
<path fill-rule="evenodd" clip-rule="evenodd" d="M17.1153 33.4514C14.859 32.955 12.5078 32.846 10.2007 33.1306C7.8905 33.4157 5.67151 34.0897 3.67532 35.1128L0.0144653 30.0137C2.81852 28.5766 5.93555 27.6297 9.18076 27.2293C12.426 26.8289 15.7333 26.9831 18.9067 27.6827L18.9158 27.6847L18.9249 27.6868C21.4952 28.2659 23.8346 29.1759 25.9474 30.074C26.6809 30.3858 27.3679 30.687 28.0312 30.9779C29.3774 31.5682 30.6259 32.1157 31.9668 32.6215M17.1153 33.4514C18.9696 33.8701 20.7888 34.5573 22.7749 35.4016C23.3385 35.6411 23.9352 35.9026 24.5534 36.1734C25.9968 36.8058 27.5577 37.4896 29.0899 38.0675L29.0922 38.0684C36.2854 40.7763 44.2097 41.7949 52.0305 41.0169L51.2052 35.094C44.6461 35.7464 38.0001 34.8923 31.9673 32.6216" fill="white"/>
<path fill-rule="evenodd" clip-rule="evenodd" d="M22.2954 16.6668L17.7621 21.5854L12.6992 18.2543L17.8892 12.6232L18.152 12.4375C19.243 11.6667 20.6201 11.2446 22.0422 11.2451C22.0425 11.2451 22.0428 11.2451 22.0431 11.2451H29.6014L29.6046 11.2451C31.0134 11.2475 32.3776 11.6621 33.4655 12.4183L33.4699 12.4214L41.9509 18.3601L47.6402 14.7667L51.4823 19.1091L45.57 22.8435L45.5676 22.8449C44.4799 23.5294 43.1523 23.8865 41.7964 23.8594C40.4405 23.8324 39.1344 23.4226 38.0861 22.6955L38.0803 22.6915L29.4766 16.6668H22.2954Z" fill="white"/>
<path fill-rule="evenodd" clip-rule="evenodd" d="M23.6827 22.5136L30.4205 15.7365L35.3339 19.2237L28.5962 26.0008L23.6827 22.5136Z" fill="white"/>
<path d="M39.7754 15.0402C42.8764 15.0402 45.3902 12.9163 45.3902 10.2962C45.3902 7.67621 42.8764 5.55225 39.7754 5.55225C36.6744 5.55225 34.1606 7.67621 34.1606 10.2962C34.1606 12.9163 36.6744 15.0402 39.7754 15.0402Z" fill="white"/>
<path d="M96.2445 10.1607C99.3454 10.1607 101.859 8.03677 101.859 5.41673C101.859 2.79669 99.3454 0.672729 96.2445 0.672729C93.1435 0.672729 90.6296 2.79669 90.6296 5.41673C90.6296 8.03677 93.1435 10.1607 96.2445 10.1607Z" fill="white"/>
<path fill-rule="evenodd" clip-rule="evenodd" d="M62.8764 24.5283C58.1806 24.5283 54.3739 27.7446 54.3739 31.7121C54.3739 35.6795 58.1806 38.8958 62.8764 38.8958C67.5721 38.8958 71.3788 35.6795 71.3788 31.7121C71.3788 27.7446 67.5721 24.5283 62.8764 24.5283ZM47.957 31.7121C47.957 24.7502 54.6366 19.1066 62.8764 19.1066C71.1161 19.1066 77.7957 24.7502 77.7957 31.7121C77.7957 38.6739 71.1161 44.3175 62.8764 44.3175C54.6366 44.3175 47.957 38.6739 47.957 31.7121Z" fill="white"/>
<path fill-rule="evenodd" clip-rule="evenodd" d="M105.549 24.5283C100.853 24.5283 97.0466 27.7446 97.0466 31.7121C97.0466 35.6795 100.853 38.8958 105.549 38.8958C110.245 38.8958 114.051 35.6795 114.051 31.7121C114.051 27.7446 110.245 24.5283 105.549 24.5283ZM90.6296 31.7121C90.6296 24.7502 97.3093 19.1066 105.549 19.1066C113.789 19.1066 120.468 24.7502 120.468 31.7121C120.468 38.6739 113.789 44.3175 105.549 44.3175C97.3093 44.3175 90.6296 38.6739 90.6296 31.7121Z" fill="white"/>
<path fill-rule="evenodd" clip-rule="evenodd" d="M87.5185 6.20679L96.2415 14.4981H96.8569L99.0177 13.4838L102.134 18.2232L98.5197 19.9198H93.3598L86.6821 13.5725L81.8469 16.6965L92.8009 19.878L80.1088 35.2933L74.8411 32.1971L82.6831 22.6725L75.5513 20.6011L71.6375 16.4676L87.5185 6.20679Z" fill="white"/>
<path d="M146.617 16.9378C149.718 16.9378 152.232 14.8139 152.232 12.1938C152.232 9.57379 149.718 7.44983 146.617 7.44983C143.516 7.44983 141.002 9.57379 141.002 12.1938C141.002 14.8139 143.516 16.9378 146.617 16.9378Z" fill="white"/>
<path fill-rule="evenodd" clip-rule="evenodd" d="M137.958 14.1937L148.271 21.5463H148.307L153.241 18.5354L156.998 22.9306L150.382 26.968H145.926L135.705 19.6819L128.323 19.8898L122.714 23.4439L118.864 19.1065L126.089 14.528L137.958 14.1937Z" fill="white"/>
<path fill-rule="evenodd" clip-rule="evenodd" d="M108.826 45.4633L136.739 16.186L141.736 19.5872L113.823 48.8645L108.826 45.4633Z" fill="white"/>
<path fill-rule="evenodd" clip-rule="evenodd" d="M128.194 26.4259L148.984 26.5676L140.31 40.4336L134.637 37.9001L138.379 31.9172L128.143 31.8474L128.194 26.4259Z" fill="white"/>
</g>
<defs>
<clipPath id="clip0_869_104">
<rect width="157" height="48.1909" fill="white" transform="translate(0 0.672729)"/>
</clipPath>
</defs>
</svg>
