<svg width="118" height="120" viewBox="0 0 118 120" fill="none" xmlns="http://www.w3.org/2000/svg">
<path d="M92.5532 27.4917C100.145 27.4917 106.299 21.3375 106.299 13.7459C106.299 6.15423 100.145 0 92.5532 0C84.9615 0 78.8073 6.15423 78.8073 13.7459C78.8073 21.3375 84.9615 27.4917 92.5532 27.4917Z" fill="white"/>
<path fill-rule="evenodd" clip-rule="evenodd" d="M71.3528 19.5407L96.6022 40.8449H96.6896L108.769 32.1207L117.967 44.8562L101.769 56.5544H90.8601L65.8389 35.4428L47.7655 36.0452L34.0348 46.3432L24.6091 33.7756L42.2975 20.5092L71.3528 19.5407Z" fill="white"/>
<path fill-rule="evenodd" clip-rule="evenodd" d="M0.032959 110.145L68.3696 25.3133L80.6034 35.1684L12.2668 120L0.032959 110.145Z" fill="white"/>
<path fill-rule="evenodd" clip-rule="evenodd" d="M47.4509 54.9837L98.3463 55.3942L77.1109 95.5714L63.222 88.2305L72.3846 70.8949L47.3242 70.6928L47.4509 54.9837Z" fill="white"/>
</svg>
