<svg width="330" height="120" viewBox="0 0 330 120" fill="none" xmlns="http://www.w3.org/2000/svg">
<path fill-rule="evenodd" clip-rule="evenodd" d="M36.0856 56.6512C31.3476 55.4176 26.4104 55.1466 21.5658 55.854C16.7145 56.5625 12.0549 58.2377 7.86316 60.7804L0.175781 48.1074C6.06398 44.5356 12.6094 42.1824 19.4239 41.1873C26.2385 40.1921 33.1835 40.5753 39.8472 42.3141L39.8664 42.3191L39.8856 42.3242C45.2829 43.7635 50.1954 46.0251 54.6319 48.2572C56.1722 49.0321 57.6149 49.7809 59.0077 50.5038C61.8346 51.9709 64.4563 53.3316 67.272 54.5885M36.0856 56.6512C39.9793 57.6917 43.7996 59.3998 47.97 61.498C49.1536 62.0935 50.4065 62.7432 51.7047 63.4163C54.7357 64.988 58.0134 66.6876 61.231 68.124L61.2357 68.1261C76.3405 74.8561 92.9808 77.3877 109.404 75.4542L107.67 60.7336C93.8971 62.3552 79.9413 60.2324 67.273 54.589" fill="white"/>
<path fill-rule="evenodd" clip-rule="evenodd" d="M36.0857 81.5796C31.3477 80.3461 26.4104 80.075 21.5658 80.7824C16.7146 81.4909 12.0549 83.1661 7.86316 85.7088L0.175781 73.0358C6.06398 69.464 12.6094 67.1108 19.4239 66.1157C26.2385 65.1205 33.1835 65.5037 39.8472 67.2425L39.8664 67.2475L39.8856 67.2526C45.2829 68.6919 50.1954 70.9535 54.6319 73.1856C56.1722 73.9605 57.6149 74.7093 59.0077 75.4322C61.8346 76.8993 64.4563 78.26 67.272 79.517M36.0857 81.5796C39.9794 82.6202 43.7996 84.3282 47.97 86.4265C49.1536 87.022 50.4065 87.6716 51.7047 88.3448C54.7357 89.9165 58.0134 91.6161 61.231 93.0524L61.2357 93.0545C76.3405 99.7845 92.9808 102.316 109.404 100.383L107.67 85.662C93.8971 87.2836 79.9413 85.1608 67.273 79.5174" fill="white"/>
<path fill-rule="evenodd" clip-rule="evenodd" d="M46.963 39.8641L37.4435 52.0885L26.812 43.8095L37.7105 29.8142L38.2624 29.3527C40.5534 27.4371 43.4451 26.3881 46.4313 26.3893C46.4319 26.3893 46.4325 26.3893 46.4332 26.3893H62.3048L62.3116 26.3893C65.2698 26.3953 68.1345 27.4256 70.4189 29.3051L70.4282 29.3128L88.2373 44.0726L100.184 35.1416L108.252 45.9341L95.8369 55.2152L95.832 55.2189C93.5479 56.9199 90.7601 57.8075 87.9129 57.7402C85.0657 57.673 82.323 56.6547 80.1217 54.8475L80.1095 54.8376L62.0427 39.8641H46.963Z" fill="white"/>
<path fill-rule="evenodd" clip-rule="evenodd" d="M49.8766 54.3954L64.0252 37.5519L74.3429 46.2188L60.1943 63.0623L49.8766 54.3954Z" fill="white"/>
<path d="M83.6694 35.8216C90.1811 35.8216 95.4599 30.5428 95.4599 24.0311C95.4599 17.5194 90.1811 12.2407 83.6694 12.2407C77.1577 12.2407 71.8789 17.5194 71.8789 24.0311C71.8789 30.5428 77.1577 35.8216 83.6694 35.8216Z" fill="white"/>
<path d="M202.248 23.6943C208.76 23.6943 214.038 18.4155 214.038 11.9038C214.038 5.39212 208.76 0.113342 202.248 0.113342C195.736 0.113342 190.457 5.39212 190.457 11.9038C190.457 18.4155 195.736 23.6943 202.248 23.6943Z" fill="white"/>
<path fill-rule="evenodd" clip-rule="evenodd" d="M132.179 59.4026C122.319 59.4026 114.325 67.3962 114.325 77.2568C114.325 87.1174 122.319 95.1109 132.179 95.1109C142.04 95.1109 150.033 87.1174 150.033 77.2568C150.033 67.3962 142.04 59.4026 132.179 59.4026ZM100.85 77.2568C100.85 59.9543 114.877 45.9278 132.179 45.9278C149.482 45.9278 163.508 59.9543 163.508 77.2568C163.508 94.5593 149.482 108.586 132.179 108.586C114.877 108.586 100.85 94.5593 100.85 77.2568Z" fill="white"/>
<path fill-rule="evenodd" clip-rule="evenodd" d="M221.786 59.4026C211.926 59.4026 203.932 67.3962 203.932 77.2568C203.932 87.1174 211.926 95.1109 221.786 95.1109C231.647 95.1109 239.641 87.1174 239.641 77.2568C239.641 67.3962 231.647 59.4026 221.786 59.4026ZM190.457 77.2568C190.457 59.9543 204.484 45.9278 221.786 45.9278C239.089 45.9278 253.115 59.9543 253.115 77.2568C253.115 94.5593 239.089 108.586 221.786 108.586C204.484 108.586 190.457 94.5593 190.457 77.2568Z" fill="white"/>
<path fill-rule="evenodd" clip-rule="evenodd" d="M183.924 13.8674L202.242 34.4742H203.534L208.071 31.9534L214.615 43.7325L207.026 47.949H196.19L182.168 32.1738L172.015 39.9381L195.017 47.8451L168.365 86.1574L157.303 78.4624L173.771 54.7904L158.794 49.6424L150.576 39.3692L183.924 13.8674Z" fill="white"/>
<path d="M308.025 40.5379C314.537 40.5379 319.816 35.2591 319.816 28.7474C319.816 22.2357 314.537 16.9569 308.025 16.9569C301.514 16.9569 296.235 22.2357 296.235 28.7474C296.235 35.2591 301.514 40.5379 308.025 40.5379Z" fill="white"/>
<path fill-rule="evenodd" clip-rule="evenodd" d="M289.841 33.7178L311.499 51.9914H311.574L321.935 44.5083L329.824 55.4321L315.931 65.4663H306.573L285.111 47.3578L269.609 47.8746L257.832 56.7076L249.747 45.9278L264.919 34.5486L289.841 33.7178Z" fill="white"/>
<path fill-rule="evenodd" clip-rule="evenodd" d="M228.667 111.433L287.282 38.6694L297.776 47.1225L239.16 119.887L228.667 111.433Z" fill="white"/>
<path fill-rule="evenodd" clip-rule="evenodd" d="M269.339 64.119L312.995 64.4712L294.78 98.933L282.867 92.6363L290.726 77.7668L269.231 77.5934L269.339 64.119Z" fill="white"/>
</svg>
