<svg width="109" height="25" viewBox="0 0 109 25" fill="none" xmlns="http://www.w3.org/2000/svg">
<path d="M18.9892 4.39072L13.4902 1.21477C11.8335 0.260587 9.79393 0.260587 8.13725 1.22173L2.66601 4.39072C1.01629 5.3449 0 7.107 0 9.01536V15.611C0 17.5194 1.01629 19.2885 2.67297 20.2426L8.18598 23.4256C9.84266 24.3797 11.8822 24.3797 13.5389 23.4186L18.9962 20.2496C20.6459 19.2954 21.6552 17.5333 21.6552 15.625V9.02929C21.6552 7.11396 20.639 5.3449 18.9892 4.39072ZM8.74284 21.5799L2.55464 18.0139C2.12306 17.7632 1.85159 17.2965 1.85159 16.7951V9.46111C1.85159 8.38156 3.02101 7.70597 3.96073 8.24226L10.1141 11.8013C10.5457 12.052 10.8172 12.5117 10.8172 13.0132L10.8381 17.5264L7.22538 15.5275V13.7723C7.22538 13.5843 7.07224 13.438 6.89125 13.438C6.71027 13.438 6.55713 13.5912 6.55713 13.7723V17.5821C6.55713 17.7701 6.71027 17.9164 6.89125 17.9164C7.07224 17.9164 7.22538 17.7632 7.22538 17.5821V16.2936L10.845 18.2925L10.852 20.3541C10.852 21.4406 9.68256 22.1162 8.74284 21.5799Z" fill="white"/>
<path d="M32.0002 6.95703H37.3531V9.88922H32.0002C31.325 9.88922 30.7542 10.126 30.2809 10.5996C29.8076 11.0732 29.5709 11.6444 29.5709 12.313C29.5709 12.9816 29.8076 13.5597 30.2809 14.0333C30.7542 14.5139 31.332 14.7507 32.0002 14.7507H37.3531V17.6689H32.0002C31.0327 17.6689 30.1347 17.4321 29.3133 16.9515C28.485 16.471 27.8376 15.8232 27.3643 15.0014C26.891 14.1795 26.6543 13.288 26.6543 12.3199C26.6543 11.3518 26.891 10.4534 27.3643 9.63152C27.8376 8.80271 28.485 8.15498 29.3133 7.67441C30.1347 7.2008 31.0327 6.95703 32.0002 6.95703Z" fill="white"/>
<path d="M39.5245 15.0013C39.0511 14.1724 38.8145 13.281 38.8145 12.3128C38.8145 11.3447 39.0511 10.4532 39.5245 9.63139C39.9978 8.80954 40.6452 8.16182 41.4735 7.68124C42.3018 7.20067 43.1928 6.96387 44.1604 6.96387C45.128 6.96387 46.0189 7.20067 46.8403 7.68124C47.6617 8.16182 48.3091 8.80954 48.7894 9.63139C49.2697 10.4532 49.5063 11.3447 49.5063 12.3128C49.5063 13.281 49.2697 14.1794 48.7894 15.0013C48.3091 15.8301 47.6617 16.4778 46.8403 16.9514C46.0189 17.425 45.128 17.6618 44.1604 17.6618C43.1928 17.6618 42.2949 17.425 41.4735 16.9514C40.6521 16.4778 39.9978 15.8301 39.5245 15.0013ZM42.4411 14.0332C42.9144 14.5068 43.4922 14.7436 44.1604 14.7436C44.8356 14.7436 45.4064 14.5068 45.8797 14.0332C46.3531 13.5595 46.5897 12.9815 46.5897 12.3128C46.5897 11.6373 46.3531 11.0661 45.8797 10.5925C45.4064 10.1189 44.8286 9.88212 44.1604 9.88212C43.4852 9.88212 42.9144 10.1189 42.4411 10.5925C41.9677 11.0661 41.7311 11.6442 41.7311 12.3128C41.7311 12.9884 41.9677 13.5595 42.4411 14.0332Z" fill="white"/>
<path d="M64.146 6.95703C65.1136 6.95703 66.0046 7.19384 66.8259 7.67441C67.6473 8.15498 68.2947 8.80271 68.775 9.62455C69.2553 10.4464 69.492 11.3449 69.492 12.3199V17.6759H66.5754V12.3199C66.5754 11.6444 66.3387 11.0663 65.8584 10.5927C65.3781 10.1121 64.8073 9.87529 64.146 9.87529C63.4917 9.87529 62.9279 10.1051 62.4615 10.5578C61.9951 11.0106 61.7445 11.5608 61.7167 12.2085C61.7167 12.2364 61.7167 12.2781 61.7167 12.3269V17.6828H58.7792V12.3269C58.7792 12.306 58.7792 12.2851 58.7792 12.2642C58.7792 12.2433 58.7792 12.2224 58.7792 12.2155C58.7583 11.5677 58.5147 11.0175 58.0413 10.5648C57.568 10.1121 57.0111 9.88225 56.3638 9.88225C55.6886 9.88225 55.1108 10.1191 54.6375 10.5996C54.1572 11.0802 53.9205 11.6583 53.9205 12.3269V17.6828H51.0039V12.3269C51.0039 11.3518 51.2406 10.4464 51.7209 9.63152C52.2012 8.80967 52.8485 8.16194 53.6699 7.68137C54.4913 7.2008 55.3823 6.964 56.3498 6.964C57.1086 6.964 57.8256 7.11026 58.4938 7.40974C59.162 7.70923 59.7468 8.12016 60.2479 8.64948C60.7491 8.12016 61.3338 7.70923 62.009 7.40974C62.6773 7.11026 63.3942 6.95703 64.146 6.95703Z" fill="white"/>
<path d="M81.7139 6.95703V13.5388C81.7139 14.681 81.3101 15.6561 80.4957 16.464C79.6813 17.2719 78.7068 17.6759 77.5652 17.6759H75.1289C73.9873 17.6759 73.0128 17.2719 72.2053 16.464C71.3979 15.6561 70.9941 14.681 70.9941 13.5388V6.95703H73.9107V13.5875C73.9107 13.9079 74.0221 14.1865 74.2518 14.4163C74.4815 14.6462 74.76 14.7576 75.0802 14.7576H77.6C77.9202 14.7576 78.1986 14.6462 78.4283 14.4163C78.6581 14.1865 78.7694 13.9079 78.7694 13.5875V6.95703H81.7139Z" fill="white"/>
<path d="M96.3461 6.95703C97.3136 6.95703 98.2046 7.19384 99.026 7.67441C99.8474 8.15498 100.495 8.80271 100.975 9.62455C101.455 10.4464 101.692 11.3449 101.692 12.3199V17.6759H98.7754V12.3199C98.7754 11.6444 98.5388 11.0663 98.0585 10.5927C97.5782 10.1121 97.0074 9.87529 96.3461 9.87529C95.6918 9.87529 95.1279 10.1051 94.6616 10.5578C94.1952 11.0106 93.9446 11.5608 93.9167 12.2085C93.9167 12.2364 93.9167 12.2781 93.9167 12.3269V17.6828H90.9862V12.3269C90.9862 12.306 90.9862 12.2851 90.9862 12.2642C90.9862 12.2433 90.9862 12.2224 90.9862 12.2155C90.9653 11.5677 90.7217 11.0175 90.2484 10.5648C89.775 10.1121 89.2182 9.88225 88.5708 9.88225C87.8956 9.88225 87.3178 10.1191 86.8445 10.5996C86.3642 11.0802 86.1275 11.6583 86.1275 12.3269V17.6828H83.2109V12.3269C83.2109 11.3518 83.4476 10.4464 83.9279 9.63152C84.4082 8.80967 85.0556 8.16194 85.877 7.68137C86.6983 7.2008 87.5893 6.964 88.5569 6.964C89.3156 6.964 90.0326 7.11026 90.7008 7.40974C91.3691 7.70923 91.9538 8.12016 92.455 8.64948C92.9562 8.12016 93.5409 7.70923 94.2161 7.40974C94.8773 7.11026 95.5943 6.95703 96.3461 6.95703Z" fill="white"/>
<path d="M107.157 17.6479C108.168 17.6479 108.988 16.8278 108.988 15.8161C108.988 14.8045 108.168 13.9844 107.157 13.9844C106.146 13.9844 105.326 14.8045 105.326 15.8161C105.326 16.8278 106.146 17.6479 107.157 17.6479Z" fill="white"/>
</svg>
