<svg width="29" height="31" viewBox="0 0 29 31" fill="none" xmlns="http://www.w3.org/2000/svg">
<path d="M24.6547 5.21463L17.5161 1.09177C15.3654 -0.146897 12.7178 -0.146897 10.5672 1.10081L3.46472 5.21463C1.32313 6.45329 0.00384521 8.74076 0.00384521 11.2181V19.7803C0.00384521 22.2576 1.32314 24.5541 3.47376 25.7928L10.6305 29.9247C12.7811 31.1633 15.4287 31.1633 17.5793 29.9156L24.6637 25.8018C26.8053 24.5631 28.1156 22.2757 28.1156 19.7983V11.2362C28.1156 8.7498 26.7963 6.45329 24.6547 5.21463ZM11.3534 27.5287L3.32014 22.8995C2.7599 22.574 2.40748 21.9683 2.40748 21.3173V11.7967C2.40748 10.3953 3.92557 9.51831 5.14546 10.2145L13.1335 14.8346C13.6937 15.1601 14.0461 15.7569 14.0461 16.4078L14.0733 22.2666L9.38345 19.6718V17.3933C9.38345 17.1492 9.18466 16.9594 8.94971 16.9594C8.71477 16.9594 8.51597 17.1583 8.51597 17.3933V22.339C8.51597 22.5831 8.71477 22.7729 8.94971 22.7729C9.18466 22.7729 9.38345 22.574 9.38345 22.339V20.6663L14.0823 23.2612L14.0913 25.9374C14.0913 27.3479 12.5732 28.2249 11.3534 27.5287Z" fill="white"/>
</svg>
