<svg width="301" height="62" viewBox="0 0 301 62" fill="none" xmlns="http://www.w3.org/2000/svg">
<path d="M49.8095 10.4129L35.5322 2.16715C31.231 -0.310186 25.9358 -0.310186 21.6345 2.18523L7.42957 10.4129C3.14639 12.8902 0.507812 17.4651 0.507812 22.4198V39.5441C0.507812 44.4988 3.14639 49.0918 7.44764 51.5691L21.761 59.8329C26.0623 62.3103 31.3575 62.3103 35.6588 59.8148L49.8276 51.5872C54.1107 49.1099 56.7312 44.535 56.7312 39.5803V22.456C56.7312 17.4832 54.0927 12.8902 49.8095 10.4129ZM23.2068 55.041L7.14041 45.7827C6.01991 45.1317 5.31509 43.9201 5.31509 42.6182V23.5771C5.31509 20.7743 8.35126 19.0202 10.791 20.4126L26.7671 29.6529C27.8876 30.3039 28.5924 31.4973 28.5924 32.7993L28.6466 44.5169L19.267 39.3271V34.7703C19.267 34.2821 18.8694 33.9023 18.3996 33.9023C17.9297 33.9023 17.5321 34.3001 17.5321 34.7703V44.6615C17.5321 45.1498 17.9297 45.5295 18.3996 45.5295C18.8694 45.5295 19.267 45.1317 19.267 44.6615V41.3162L28.6647 46.506L28.6828 51.8584C28.6828 54.6794 25.6466 56.4334 23.2068 55.041Z" fill="#344EAD"/>
<path d="M100.611 17.0763H114.509V24.6891H100.611C98.8581 24.6891 97.3761 25.3039 96.1472 26.5336C94.9183 27.7632 94.3038 29.246 94.3038 30.9819C94.3038 32.7178 94.9183 34.2187 96.1472 35.4483C97.3761 36.696 98.8761 37.3109 100.611 37.3109H114.509V44.8875H100.611C98.099 44.8875 95.7677 44.2727 93.6351 43.025C91.4845 41.7773 89.8038 40.0956 88.5748 37.9618C87.3459 35.8281 86.7314 33.5135 86.7314 31C86.7314 28.4865 87.3459 26.1538 88.5748 24.0201C89.8038 21.8682 91.4845 20.1865 93.6351 18.9388C95.7677 17.7092 98.099 17.0763 100.611 17.0763Z" fill="#344EAD"/>
<path d="M120.148 37.9618C118.919 35.81 118.304 33.4954 118.304 30.9819C118.304 28.4684 118.919 26.1538 120.148 24.02C121.377 21.8863 123.057 20.2046 125.208 18.9569C127.359 17.7092 129.672 17.0944 132.184 17.0944C134.696 17.0944 137.009 17.7092 139.142 18.9569C141.274 20.2046 142.955 21.8863 144.202 24.02C145.449 26.1538 146.063 28.4684 146.063 30.9819C146.063 33.4954 145.449 35.8281 144.202 37.9618C142.955 40.1137 141.274 41.7953 139.142 43.025C137.009 44.2546 134.696 44.8694 132.184 44.8694C129.672 44.8694 127.34 44.2546 125.208 43.025C123.075 41.7953 121.377 40.1137 120.148 37.9618ZM127.72 35.4483C128.949 36.6779 130.449 37.2928 132.184 37.2928C133.937 37.2928 135.419 36.6779 136.648 35.4483C137.877 34.2187 138.491 32.7178 138.491 30.9819C138.491 29.2279 137.877 27.7451 136.648 26.5155C135.419 25.2858 133.919 24.671 132.184 24.671C130.431 24.671 128.949 25.2858 127.72 26.5155C126.491 27.7451 125.877 29.2459 125.877 30.9819C125.877 32.7359 126.491 34.2187 127.72 35.4483Z" fill="#344EAD"/>
<path d="M184.07 17.0763C186.582 17.0763 188.895 17.6911 191.027 18.9388C193.16 20.1865 194.841 21.8682 196.088 24.002C197.335 26.1357 197.949 28.4684 197.949 31V44.9056H190.377V31C190.377 29.246 189.762 27.7451 188.515 26.5155C187.268 25.2678 185.786 24.653 184.07 24.653C182.371 24.653 180.907 25.2497 179.696 26.4251C178.485 27.6004 177.835 29.029 177.762 30.7107C177.762 30.783 177.762 30.8915 177.762 31.0181V44.9237H170.136V31.0181C170.136 30.9638 170.136 30.9096 170.136 30.8553C170.136 30.8011 170.136 30.7468 170.136 30.7287C170.081 29.0471 169.449 27.6185 168.22 26.4431C166.991 25.2678 165.545 24.671 163.865 24.671C162.111 24.671 160.611 25.2858 159.383 26.5336C158.136 27.7813 157.521 29.2821 157.521 31.0181V44.9237H149.949V31.0181C149.949 28.4865 150.563 26.1357 151.81 24.0201C153.057 21.8863 154.738 20.2046 156.87 18.9569C159.003 17.7092 161.316 17.0944 163.828 17.0944C165.798 17.0944 167.66 17.4741 169.395 18.2517C171.13 19.0292 172.648 20.0961 173.949 21.4704C175.25 20.0961 176.768 19.0292 178.521 18.2517C180.256 17.4741 182.118 17.0763 184.07 17.0763Z" fill="#344EAD"/>
<path d="M229.685 17.0763V34.1645C229.685 37.13 228.636 39.6616 226.522 41.7592C224.407 43.8568 221.877 44.9056 218.913 44.9056H212.588C209.624 44.9056 207.094 43.8568 204.998 41.7592C202.901 39.6616 201.853 37.13 201.853 34.1645V17.0763H209.425V34.291C209.425 35.1228 209.715 35.8462 210.311 36.4429C210.907 37.0396 211.63 37.3289 212.462 37.3289H219.004C219.835 37.3289 220.558 37.0396 221.154 36.4429C221.751 35.8462 222.04 35.1228 222.04 34.291V17.0763H229.685Z" fill="#344EAD"/>
<path d="M267.673 17.0763C270.185 17.0763 272.498 17.6911 274.631 18.9388C276.763 20.1865 278.444 21.8682 279.691 24.002C280.938 26.1357 281.553 28.4684 281.553 31V44.9056H273.98V31C273.98 29.246 273.366 27.7451 272.119 26.5155C270.872 25.2678 269.39 24.653 267.673 24.653C265.974 24.653 264.51 25.2497 263.3 26.4251C262.089 27.6004 261.438 29.029 261.366 30.7107C261.366 30.783 261.366 30.8915 261.366 31.0181V44.9237H253.757V31.0181C253.757 30.9638 253.757 30.9096 253.757 30.8553C253.757 30.8011 253.757 30.7468 253.757 30.7287C253.703 29.0471 253.07 27.6185 251.842 26.4431C250.613 25.2678 249.167 24.671 247.486 24.671C245.733 24.671 244.233 25.2858 243.004 26.5336C241.757 27.7813 241.143 29.2821 241.143 31.0181V44.9237H233.57V31.0181C233.57 28.4865 234.185 26.1357 235.432 24.0201C236.679 21.8863 238.36 20.2046 240.492 18.9569C242.625 17.7092 244.938 17.0944 247.45 17.0944C249.42 17.0944 251.281 17.4741 253.016 18.2517C254.751 19.0292 256.269 20.0961 257.571 21.4704C258.872 20.0961 260.39 19.0292 262.143 18.2517C263.86 17.4741 265.721 17.0763 267.673 17.0763Z" fill="#344EAD"/>
<path d="M295.739 44.8332C298.364 44.8332 300.492 42.7039 300.492 40.0774C300.492 37.4509 298.364 35.3217 295.739 35.3217C293.114 35.3217 290.986 37.4509 290.986 40.0774C290.986 42.7039 293.114 44.8332 295.739 44.8332Z" fill="#344EAD"/>
</svg>
