<svg width="254" height="47" viewBox="0 0 254 47" fill="none" xmlns="http://www.w3.org/2000/svg">
<path d="M76.6547 13.2146L69.5161 9.09177C67.3654 7.8531 64.7178 7.8531 62.5672 9.10081L55.4647 13.2146C53.3231 14.4533 52.0038 16.7408 52.0038 19.2181V27.7803C52.0038 30.2576 53.3231 32.5541 55.4738 33.7928L62.6305 37.9247C64.7811 39.1633 67.4287 39.1633 69.5793 37.9156L76.6637 33.8018C78.8053 32.5631 80.1156 30.2757 80.1156 27.7983V19.2362C80.1156 16.7498 78.7963 14.4533 76.6547 13.2146ZM63.3534 35.5287L55.3201 30.8995C54.7599 30.574 54.4075 29.9683 54.4075 29.3173V19.7967C54.4075 18.3953 55.9256 17.5183 57.1455 18.2145L65.1335 22.8346C65.6937 23.1601 66.0461 23.7569 66.0461 24.4078L66.0733 30.2666L61.3835 27.6718V25.3933C61.3835 25.1492 61.1847 24.9594 60.9497 24.9594C60.7148 24.9594 60.516 25.1583 60.516 25.3933V30.339C60.516 30.5831 60.7148 30.7729 60.9497 30.7729C61.1847 30.7729 61.3835 30.574 61.3835 30.339V28.6663L66.0823 31.2612L66.0913 33.9374C66.0913 35.3479 64.5732 36.2249 63.3534 35.5287Z" fill="white"/>
<path d="M102.055 16.5464H109.004V20.3528H102.055C101.179 20.3528 100.438 20.6602 99.8235 21.275C99.209 21.8898 98.9018 22.6312 98.9018 23.4992C98.9018 24.3671 99.209 25.1176 99.8235 25.7324C100.438 26.3562 101.188 26.6636 102.055 26.6636H109.004V30.452H102.055C100.799 30.452 99.6337 30.1446 98.5674 29.5207C97.4921 28.8969 96.6518 28.056 96.0373 26.9891C95.4228 25.9223 95.1156 24.765 95.1156 23.5082C95.1156 22.2515 95.4228 21.0851 96.0373 20.0183C96.6518 18.9423 97.4921 18.1015 98.5674 17.4776C99.6337 16.8628 100.799 16.5464 102.055 16.5464Z" fill="white"/>
<path d="M111.824 26.9891C111.209 25.9132 110.902 24.7559 110.902 23.4992C110.902 22.2424 111.209 21.0851 111.824 20.0183C112.438 18.9514 113.278 18.1105 114.354 17.4867C115.429 16.8628 116.586 16.5554 117.842 16.5554C119.098 16.5554 120.254 16.8628 121.321 17.4867C122.387 18.1105 123.227 18.9514 123.851 20.0183C124.474 21.0851 124.782 22.2424 124.782 23.4992C124.782 24.7559 124.474 25.9223 123.851 26.9891C123.227 28.0651 122.387 28.9059 121.321 29.5207C120.254 30.1355 119.098 30.4429 117.842 30.4429C116.586 30.4429 115.42 30.1355 114.354 29.5207C113.287 28.9059 112.438 28.0651 111.824 26.9891ZM115.61 25.7324C116.224 26.3472 116.974 26.6546 117.842 26.6546C118.718 26.6546 119.459 26.3472 120.074 25.7324C120.688 25.1176 120.995 24.3671 120.995 23.4992C120.995 22.6222 120.688 21.8808 120.074 21.266C119.459 20.6512 118.709 20.3437 117.842 20.3437C116.965 20.3437 116.224 20.6512 115.61 21.266C114.995 21.8808 114.688 22.6312 114.688 23.4992C114.688 24.3762 114.995 25.1176 115.61 25.7324Z" fill="white"/>
<path d="M143.785 16.5464C145.041 16.5464 146.197 16.8538 147.264 17.4776C148.33 18.1015 149.17 18.9423 149.794 20.0092C150.417 21.0761 150.725 22.2424 150.725 23.5082V30.461H146.938V23.5082C146.938 22.6312 146.631 21.8808 146.008 21.266C145.384 20.6421 144.643 20.3347 143.785 20.3347C142.935 20.3347 142.203 20.6331 141.598 21.2208C140.993 21.8084 140.667 22.5227 140.631 23.3636C140.631 23.3997 140.631 23.454 140.631 23.5173V30.4701H136.818V23.5173C136.818 23.4901 136.818 23.463 136.818 23.4359C136.818 23.4088 136.818 23.3816 136.818 23.3726C136.791 22.5317 136.474 21.8175 135.86 21.2298C135.246 20.6421 134.523 20.3437 133.682 20.3437C132.806 20.3437 132.056 20.6511 131.441 21.275C130.818 21.8989 130.511 22.6493 130.511 23.5173V30.4701H126.724V23.5173C126.724 22.2515 127.032 21.0761 127.655 20.0183C128.279 18.9514 129.119 18.1105 130.185 17.4867C131.252 16.8628 132.408 16.5554 133.664 16.5554C134.649 16.5554 135.58 16.7453 136.447 17.1341C137.315 17.5228 138.074 18.0563 138.724 18.7434C139.375 18.0563 140.134 17.5228 141.011 17.1341C141.878 16.7453 142.809 16.5464 143.785 16.5464Z" fill="white"/>
<path d="M166.592 16.5464V25.0905C166.592 26.5732 166.068 27.839 165.011 28.8878C163.954 29.9366 162.689 30.461 161.207 30.461H158.044C156.562 30.461 155.297 29.9366 154.249 28.8878C153.2 27.839 152.676 26.5732 152.676 25.0905V16.5464H156.463V25.1537C156.463 25.5696 156.607 25.9313 156.905 26.2297C157.204 26.528 157.565 26.6727 157.981 26.6727H161.252C161.667 26.6727 162.029 26.528 162.327 26.2297C162.625 25.9313 162.77 25.5696 162.77 25.1537V16.5464H166.592Z" fill="white"/>
<path d="M185.586 16.5464C186.842 16.5464 187.999 16.8538 189.065 17.4776C190.132 18.1015 190.972 18.9423 191.595 20.0092C192.219 21.0761 192.526 22.2424 192.526 23.5082V30.461H188.74V23.5082C188.74 22.6312 188.433 21.8808 187.809 21.266C187.186 20.6421 186.445 20.3347 185.586 20.3347C184.737 20.3347 184.005 20.6331 183.4 21.2208C182.794 21.8084 182.469 22.5227 182.433 23.3636C182.433 23.3997 182.433 23.454 182.433 23.5173V30.4701H178.629V23.5173C178.629 23.4901 178.629 23.463 178.629 23.4359C178.629 23.4088 178.629 23.3816 178.629 23.3726C178.601 22.5317 178.285 21.8175 177.671 21.2298C177.056 20.6421 176.333 20.3437 175.493 20.3437C174.616 20.3437 173.866 20.6511 173.252 21.275C172.628 21.8989 172.321 22.6493 172.321 23.5173V30.4701H168.535V23.5173C168.535 22.2515 168.842 21.0761 169.466 20.0183C170.089 18.9514 170.93 18.1105 171.996 17.4867C173.062 16.8628 174.219 16.5554 175.475 16.5554C176.46 16.5554 177.391 16.7453 178.258 17.1341C179.125 17.5228 179.885 18.0563 180.535 18.7434C181.186 18.0563 181.945 17.5228 182.821 17.1341C183.68 16.7453 184.61 16.5464 185.586 16.5464Z" fill="white"/>
<path d="M199.62 30.4248C200.932 30.4248 201.996 29.3602 201.996 28.047C201.996 26.7337 200.932 25.6691 199.62 25.6691C198.307 25.6691 197.243 26.7337 197.243 28.047C197.243 29.3602 198.307 30.4248 199.62 30.4248Z" fill="white"/>
</svg>
