<svg width="150" height="32" viewBox="0 0 150 32" fill="none" xmlns="http://www.w3.org/2000/svg">
<path d="M24.6547 5.70641L17.5161 1.58355C15.3655 0.344888 12.7179 0.344888 10.5673 1.5926L3.46478 5.70641C1.3232 6.94508 0.00390625 9.23254 0.00390625 11.7099V20.272C0.00390625 22.7494 1.3232 25.0459 3.47382 26.2845L10.6305 30.4164C12.7811 31.6551 15.4288 31.6551 17.5794 30.4074L24.6638 26.2936C26.8054 25.0549 28.1156 22.7675 28.1156 20.2901V11.728C28.1156 9.24158 26.7963 6.94508 24.6547 5.70641ZM11.3534 28.0205L3.3202 23.3913C2.75996 23.0658 2.40754 22.4601 2.40754 21.8091V12.2885C2.40754 10.8871 3.92563 10.0101 5.14552 10.7063L13.1336 15.3264C13.6938 15.6519 14.0462 16.2486 14.0462 16.8996L14.0733 22.7584L9.38352 20.1635V17.8851C9.38352 17.641 9.18472 17.4511 8.94978 17.4511C8.71483 17.4511 8.51604 17.65 8.51604 17.8851V22.8307C8.51604 23.0749 8.71483 23.2647 8.94978 23.2647C9.18472 23.2647 9.38352 23.0658 9.38352 22.8307V21.1581L14.0824 23.753L14.0914 26.4292C14.0914 27.8397 12.5733 28.7167 11.3534 28.0205Z" fill="#3267E3"/>
<path d="M50.0554 9.03815H57.0043V12.8446H50.0554C49.1789 12.8446 48.4379 13.152 47.8235 13.7668C47.209 14.3816 46.9018 15.123 46.9018 15.991C46.9018 16.8589 47.209 17.6094 47.8235 18.2242C48.4379 18.848 49.1879 19.1554 50.0554 19.1554H57.0043V22.9438H50.0554C48.7994 22.9438 47.6337 22.6364 46.5674 22.0125C45.4921 21.3886 44.6518 20.5478 44.0373 19.4809C43.4228 18.414 43.1156 17.2567 43.1156 16C43.1156 14.7433 43.4228 13.5769 44.0373 12.51C44.6518 11.4341 45.4921 10.5933 46.5674 9.96941C47.6337 9.3546 48.7994 9.03815 50.0554 9.03815Z" fill="#3267E3"/>
<path d="M59.8237 19.4809C59.2092 18.405 58.902 17.2477 58.902 15.991C58.902 14.7342 59.2092 13.5769 59.8237 12.51C60.4381 11.4432 61.2785 10.6023 62.3538 9.97846C63.4291 9.35461 64.5858 9.0472 65.8418 9.0472C67.0978 9.0472 68.2545 9.35461 69.3208 9.97846C70.387 10.6023 71.2274 11.4432 71.8509 12.51C72.4744 13.5769 72.7816 14.7342 72.7816 15.991C72.7816 17.2477 72.4744 18.4141 71.8509 19.4809C71.2274 20.5569 70.387 21.3977 69.3208 22.0125C68.2545 22.6273 67.0978 22.9347 65.8418 22.9347C64.5858 22.9347 63.4201 22.6273 62.3538 22.0125C61.2875 21.3977 60.4381 20.5569 59.8237 19.4809ZM63.6099 18.2242C64.2243 18.839 64.9743 19.1464 65.8418 19.1464C66.7183 19.1464 67.4593 18.839 68.0738 18.2242C68.6882 17.6094 68.9955 16.8589 68.9955 15.991C68.9955 15.114 68.6882 14.3726 68.0738 13.7578C67.4593 13.1429 66.7093 12.8355 65.8418 12.8355C64.9653 12.8355 64.2243 13.1429 63.6099 13.7578C62.9954 14.3726 62.6882 15.123 62.6882 15.991C62.6882 16.868 62.9954 17.6094 63.6099 18.2242Z" fill="#3267E3"/>
<path d="M91.7848 9.03815C93.0408 9.03815 94.1974 9.34556 95.2637 9.96941C96.33 10.5933 97.1704 11.4341 97.7939 12.501C98.4174 13.5679 98.7246 14.7342 98.7246 16V22.9528H94.9384V16C94.9384 15.123 94.6312 14.3726 94.0077 13.7577C93.3842 13.1339 92.6432 12.8265 91.7848 12.8265C90.9354 12.8265 90.2034 13.1248 89.598 13.7125C88.9926 14.3002 88.6673 15.0145 88.6311 15.8553C88.6311 15.8915 88.6311 15.9458 88.6311 16.009V22.9618H84.8178V16.009C84.8178 15.9819 84.8178 15.9548 84.8178 15.9277C84.8178 15.9005 84.8178 15.8734 84.8178 15.8644C84.7907 15.0235 84.4745 14.3093 83.86 13.7216C83.2455 13.1339 82.5226 12.8355 81.6823 12.8355C80.8057 12.8355 80.0557 13.1429 79.4413 13.7668C78.8178 14.3906 78.5105 15.1411 78.5105 16.009V22.9618H74.7244V16.009C74.7244 14.7433 75.0316 13.5679 75.6551 12.51C76.2786 11.4432 77.119 10.6023 78.1852 9.97846C79.2515 9.3546 80.4082 9.0472 81.6642 9.0472C82.6491 9.0472 83.5799 9.23706 84.4474 9.62584C85.3148 10.0146 86.0739 10.5481 86.7245 11.2352C87.3751 10.5481 88.1341 10.0146 89.0107 9.62584C89.8781 9.23706 90.8089 9.03815 91.7848 9.03815Z" fill="#3267E3"/>
<path d="M114.592 9.03815V17.5822C114.592 19.065 114.068 20.3308 113.011 21.3796C111.954 22.4284 110.689 22.9528 109.207 22.9528H106.044C104.562 22.9528 103.297 22.4284 102.249 21.3796C101.2 20.3308 100.676 19.065 100.676 17.5822V9.03815H104.463V17.6455C104.463 18.0614 104.607 18.4231 104.905 18.7214C105.204 19.0198 105.565 19.1645 105.981 19.1645H109.252C109.667 19.1645 110.029 19.0198 110.327 18.7214C110.625 18.4231 110.77 18.0614 110.77 17.6455V9.03815H114.592Z" fill="#3267E3"/>
<path d="M133.586 9.03815C134.842 9.03815 135.999 9.34556 137.065 9.96941C138.132 10.5933 138.972 11.4341 139.595 12.501C140.219 13.5679 140.526 14.7342 140.526 16V22.9528H136.74V16C136.74 15.123 136.433 14.3726 135.809 13.7577C135.186 13.1339 134.445 12.8265 133.586 12.8265C132.737 12.8265 132.005 13.1248 131.4 13.7125C130.794 14.3002 130.469 15.0145 130.433 15.8553C130.433 15.8915 130.433 15.9458 130.433 16.009V22.9618H126.629V16.009C126.629 15.9819 126.629 15.9548 126.629 15.9277C126.629 15.9005 126.629 15.8734 126.629 15.8644C126.601 15.0235 126.285 14.3093 125.671 13.7216C125.056 13.1339 124.333 12.8355 123.493 12.8355C122.616 12.8355 121.866 13.1429 121.252 13.7668C120.628 14.3906 120.321 15.1411 120.321 16.009V22.9618H116.535V16.009C116.535 14.7433 116.842 13.5679 117.466 12.51C118.089 11.4432 118.93 10.6023 119.996 9.97846C121.062 9.3546 122.219 9.0472 123.475 9.0472C124.46 9.0472 125.391 9.23706 126.258 9.62584C127.125 10.0146 127.885 10.5481 128.535 11.2352C129.186 10.5481 129.945 10.0146 130.821 9.62584C131.68 9.23706 132.61 9.03815 133.586 9.03815Z" fill="#3267E3"/>
<path d="M147.62 22.9166C148.932 22.9166 149.996 21.852 149.996 20.5387C149.996 19.2255 148.932 18.1609 147.62 18.1609C146.307 18.1609 145.243 19.2255 145.243 20.5387C145.243 21.852 146.307 22.9166 147.62 22.9166Z" fill="#3267E3"/>
</svg>
